<svg id="Layer_1" data-name="Layer 1" xmlns="http://www.w3.org/2000/svg" viewBox="0 0 1920 2160"><defs><style>.cls-1{fill:#ffed75;}.cls-2{fill:#ffee1a;}.cls-3{fill:#fff;}.cls-4{fill:#29a3ce;}.cls-5{fill:#131421;}</style></defs><rect class="cls-1" x="0.5" y="-121" width="1919" height="2402"/><path d="M1919-120.5v2401H1v-2401H1919m1-1H0v2403H1920v-2403Z"/><rect x="1387.56" y="1430.32" width="25.32" height="25.32"/><path d="M1412.38,1430.82v24.32h-24.32v-24.32h24.32m1-1h-26.32v26.32h26.32v-26.32Z"/><rect class="cls-2" x="1571.52" y="1561.65" width="25.82" height="25.82"/><path class="cls-3" d="M1597.09,1561.9v25.32h-25.32V1561.9h25.32m.5-.5h-26.32v26.32h26.32V1561.4Z"/><rect class="cls-2" x="1545.2" y="1561.65" width="25.82" height="25.82"/><path class="cls-3" d="M1570.77,1561.9v25.32h-25.32V1561.9h25.32m.5-.5H1545v26.32h26.32V1561.4Z"/><rect class="cls-2" x="1518.89" y="1561.65" width="25.82" height="25.82"/><path class="cls-3" d="M1544.45,1561.9v25.32h-25.31V1561.9h25.31m.5-.5h-26.31v26.32H1545V1561.4Z"/><rect class="cls-2" x="1492.57" y="1561.65" width="25.82" height="25.82"/><path class="cls-3" d="M1518.14,1561.9v25.32h-25.32V1561.9h25.32m.5-.5h-26.32v26.32h26.32V1561.4Z"/><rect class="cls-2" x="1466.26" y="1561.65" width="25.82" height="25.82"/><path class="cls-3" d="M1491.82,1561.9v25.32h-25.31V1561.9h25.31m.5-.5H1466v26.32h26.31V1561.4Z"/><rect class="cls-2" x="1439.94" y="1561.65" width="25.82" height="25.82"/><path class="cls-3" d="M1465.51,1561.9v25.32h-25.32V1561.9h25.32m.5-.5h-26.32v26.32H1466V1561.4Z"/><rect class="cls-2" x="1413.63" y="1561.65" width="25.82" height="25.82"/><path class="cls-3" d="M1439.19,1561.9v25.32h-25.31V1561.9h25.31m.5-.5h-26.31v26.32h26.31V1561.4Z"/><rect class="cls-2" x="1387.31" y="1561.65" width="25.82" height="25.82"/><path class="cls-3" d="M1412.88,1561.9v25.32h-25.32V1561.9h25.32m.5-.5h-26.32v26.32h26.32V1561.4Z"/><path class="cls-2" d="M1363.1,1587.47a26.1,26.1,0,0,1,25.82-25.82v25.82Z"/><path class="cls-3" d="M1388.67,1561.91v25.31h-25.32a25.85,25.85,0,0,1,25.32-25.31m.5-.51h0a26.31,26.31,0,0,0-26.31,26.32h26.32V1561.4Z"/><path class="cls-2" d="M1336.78,1613.78A26.1,26.1,0,0,1,1362.6,1588v25.81Z"/><path class="cls-3" d="M1362.35,1588.22v25.31H1337a25.84,25.84,0,0,1,25.31-25.31m.5-.5h0a26.32,26.32,0,0,0-26.32,26.31h26.32v-26.31Z"/><rect class="cls-2" x="1596.78" y="1587.97" width="25.82" height="25.82"/><path class="cls-3" d="M1622.35,1588.22v25.31H1597v-25.31h25.32m.5-.5h-26.32V1614h26.32v-26.31Z"/><path class="cls-2" d="M1596.78,1587.47v-25.82a26.11,26.11,0,0,1,25.82,25.82Z"/><path class="cls-3" d="M1597,1561.91a25.84,25.84,0,0,1,25.31,25.31H1597v-25.31m-.5-.51v26.32h26.32a26.32,26.32,0,0,0-26.32-26.32Z"/><path class="cls-2" d="M1623.1,1613.78V1588a26.09,26.09,0,0,1,25.81,25.81Z"/><path class="cls-3" d="M1623.35,1588.22a25.84,25.84,0,0,1,25.31,25.31h-25.31v-25.31m-.5-.5V1614h26.32a26.32,26.32,0,0,0-26.32-26.31Z"/><rect class="cls-2" x="1571.52" y="1587.97" width="25.82" height="25.82"/><path class="cls-3" d="M1597.09,1588.22v25.31h-25.32v-25.31h25.32m.5-.5h-26.32V1614h26.32v-26.31Z"/><rect class="cls-2" x="1545.2" y="1587.97" width="25.82" height="25.82"/><path class="cls-3" d="M1570.77,1588.22v25.31h-25.32v-25.31h25.32m.5-.5H1545V1614h26.32v-26.31Z"/><rect class="cls-2" x="1518.89" y="1587.97" width="25.82" height="25.82"/><path class="cls-3" d="M1544.45,1588.22v25.31h-25.31v-25.31h25.31m.5-.5h-26.31V1614H1545v-26.31Z"/><rect class="cls-2" x="1492.57" y="1587.97" width="25.82" height="25.82"/><path class="cls-3" d="M1518.14,1588.22v25.31h-25.32v-25.31h25.32m.5-.5h-26.32V1614h26.32v-26.31Z"/><rect class="cls-2" x="1466.26" y="1587.97" width="25.82" height="25.82"/><path class="cls-3" d="M1491.82,1588.22v25.31h-25.31v-25.31h25.31m.5-.5H1466V1614h26.31v-26.31Z"/><rect class="cls-2" x="1439.94" y="1587.97" width="25.82" height="25.82"/><path class="cls-3" d="M1465.51,1588.22v25.31h-25.32v-25.31h25.32m.5-.5h-26.32V1614H1466v-26.31Z"/><rect class="cls-2" x="1413.63" y="1587.97" width="25.82" height="25.82"/><path class="cls-3" d="M1439.19,1588.22v25.31h-25.31v-25.31h25.31m.5-.5h-26.31V1614h26.31v-26.31Z"/><rect class="cls-2" x="1387.31" y="1587.97" width="25.82" height="25.82"/><path class="cls-3" d="M1412.88,1588.22v25.31h-25.32v-25.31h25.32m.5-.5h-26.32V1614h26.32v-26.31Z"/><rect class="cls-2" x="1363.1" y="1587.97" width="25.82" height="25.82"/><path class="cls-3" d="M1388.67,1588.22v25.31h-25.32v-25.31h25.32m.5-.5h-26.32V1614h26.32v-26.31Z"/><rect class="cls-2" x="1596.78" y="1614.28" width="25.82" height="25.82"/><path class="cls-3" d="M1622.35,1614.53v25.32H1597v-25.32h25.32m.5-.5h-26.32v26.32h26.32V1614Z"/><rect class="cls-2" x="1571.52" y="1614.28" width="25.82" height="25.82"/><path class="cls-3" d="M1597.09,1614.53v25.32h-25.32v-25.32h25.32m.5-.5h-26.32v26.32h26.32V1614Z"/><rect class="cls-2" x="1545.2" y="1614.28" width="25.82" height="25.82"/><path class="cls-3" d="M1570.77,1614.53v25.32h-25.32v-25.32h25.32m.5-.5H1545v26.32h26.32V1614Z"/><rect class="cls-2" x="1518.89" y="1614.28" width="25.82" height="25.82"/><path class="cls-3" d="M1544.45,1614.53v25.32h-25.31v-25.32h25.31m.5-.5h-26.31v26.32H1545V1614Z"/><rect class="cls-2" x="1492.57" y="1614.28" width="25.82" height="25.82"/><path class="cls-3" d="M1518.14,1614.53v25.32h-25.32v-25.32h25.32m.5-.5h-26.32v26.32h26.32V1614Z"/><rect class="cls-2" x="1466.26" y="1614.28" width="25.82" height="25.82"/><path class="cls-3" d="M1491.82,1614.53v25.32h-25.31v-25.32h25.31m.5-.5H1466v26.32h26.31V1614Z"/><rect class="cls-2" x="1439.94" y="1614.28" width="25.82" height="25.82"/><path class="cls-3" d="M1465.51,1614.53v25.32h-25.32v-25.32h25.32m.5-.5h-26.32v26.32H1466V1614Z"/><rect class="cls-2" x="1413.63" y="1614.28" width="25.82" height="25.82"/><path class="cls-3" d="M1439.19,1614.53v25.32h-25.31v-25.32h25.31m.5-.5h-26.31v26.32h26.31V1614Z"/><rect class="cls-2" x="1387.31" y="1614.28" width="25.82" height="25.82"/><path class="cls-3" d="M1412.88,1614.53v25.32h-25.32v-25.32h25.32m.5-.5h-26.32v26.32h26.32V1614Z"/><rect class="cls-2" x="1363.1" y="1614.28" width="25.82" height="25.82"/><path class="cls-3" d="M1388.67,1614.53v25.32h-25.32v-25.32h25.32m.5-.5h-26.32v26.32h26.32V1614Z"/><rect class="cls-2" x="1596.78" y="1640.6" width="25.82" height="25.82"/><path class="cls-3" d="M1622.35,1640.85v25.32H1597v-25.32h25.32m.5-.5h-26.32v26.32h26.32v-26.32Z"/><rect class="cls-2" x="1623.1" y="1614.28" width="25.82" height="25.82"/><path class="cls-3" d="M1648.67,1614.53v25.32h-25.32v-25.32h25.32m.5-.5h-26.32v26.32h26.32V1614Z"/><rect class="cls-2" x="1623.1" y="1640.6" width="25.82" height="25.82"/><path class="cls-3" d="M1648.67,1640.85v25.32h-25.32v-25.32h25.32m.5-.5h-26.32v26.32h26.32v-26.32Z"/><rect class="cls-2" x="1571.52" y="1640.6" width="25.82" height="25.82"/><path class="cls-3" d="M1597.09,1640.85v25.32h-25.32v-25.32h25.32m.5-.5h-26.32v26.32h26.32v-26.32Z"/><rect class="cls-2" x="1545.2" y="1640.6" width="25.82" height="25.82"/><path class="cls-3" d="M1570.77,1640.85v25.32h-25.32v-25.32h25.32m.5-.5H1545v26.32h26.32v-26.32Z"/><rect class="cls-2" x="1518.89" y="1640.6" width="25.82" height="25.82"/><path class="cls-3" d="M1544.45,1640.85v25.32h-25.31v-25.32h25.31m.5-.5h-26.31v26.32H1545v-26.32Z"/><rect class="cls-2" x="1492.57" y="1640.6" width="25.82" height="25.82"/><path class="cls-3" d="M1518.14,1640.85v25.32h-25.32v-25.32h25.32m.5-.5h-26.32v26.32h26.32v-26.32Z"/><rect class="cls-2" x="1466.26" y="1640.6" width="25.82" height="25.82"/><path class="cls-3" d="M1491.82,1640.85v25.32h-25.31v-25.32h25.31m.5-.5H1466v26.32h26.31v-26.32Z"/><rect class="cls-2" x="1439.94" y="1640.6" width="25.82" height="25.82"/><path class="cls-3" d="M1465.51,1640.85v25.32h-25.32v-25.32h25.32m.5-.5h-26.32v26.32H1466v-26.32Z"/><rect class="cls-2" x="1413.63" y="1640.6" width="25.82" height="25.82"/><path class="cls-3" d="M1439.19,1640.85v25.32h-25.31v-25.32h25.31m.5-.5h-26.31v26.32h26.31v-26.32Z"/><rect class="cls-2" x="1387.31" y="1640.6" width="25.82" height="25.82"/><path class="cls-3" d="M1412.88,1640.85v25.32h-25.32v-25.32h25.32m.5-.5h-26.32v26.32h26.32v-26.32Z"/><rect class="cls-2" x="1363.1" y="1640.6" width="25.82" height="25.82"/><path class="cls-3" d="M1388.67,1640.85v25.32h-25.32v-25.32h25.32m.5-.5h-26.32v26.32h26.32v-26.32Z"/><rect class="cls-2" x="1336.78" y="1614.28" width="25.82" height="25.82"/><path class="cls-3" d="M1362.35,1614.53v25.32H1337v-25.32h25.32m.5-.5h-26.32v26.32h26.32V1614Z"/><rect class="cls-2" x="1336.78" y="1640.6" width="25.82" height="25.82"/><path class="cls-3" d="M1362.35,1640.85v25.32H1337v-25.32h25.32m.5-.5h-26.32v26.32h26.32v-26.32Z"/><rect x="1519.14" y="1430.32" width="25.32" height="25.32"/><path d="M1544,1430.82v24.32h-24.31v-24.32H1544m1-1h-26.31v26.32H1545v-26.32Z"/><rect class="cls-4" x="1466.26" y="1403.76" width="25.82" height="25.82"/><path class="cls-3" d="M1491.82,1404v25.31h-25.31V1404h25.31m.5-.5H1466v26.31h26.31v-26.31Z"/><rect class="cls-4" x="1413.63" y="1377.44" width="25.82" height="25.82"/><path class="cls-3" d="M1439.19,1377.69V1403h-25.31v-25.32h25.31m.5-.5h-26.31v26.32h26.31v-26.32Z"/><rect class="cls-4" x="1387.31" y="1377.44" width="25.82" height="25.82"/><path class="cls-3" d="M1412.88,1377.69V1403h-25.32v-25.32h25.32m.5-.5h-26.32v26.32h26.32v-26.32Z"/><rect class="cls-4" x="1413.63" y="1456.39" width="25.82" height="25.82"/><path class="cls-3" d="M1439.19,1456.64V1482h-25.31v-25.31h25.31m.5-.5h-26.31v26.31h26.31v-26.31Z"/><rect class="cls-4" x="1387.31" y="1456.39" width="25.82" height="25.82"/><path class="cls-3" d="M1412.88,1456.64V1482h-25.32v-25.31h25.32m.5-.5h-26.32v26.31h26.32v-26.31Z"/><rect class="cls-4" x="1360.99" y="1403.76" width="25.82" height="25.82"/><path class="cls-3" d="M1386.56,1404v25.31h-25.32V1404h25.32m.5-.5h-26.32v26.31h26.32v-26.31Z"/><rect class="cls-4" x="1360.99" y="1430.07" width="25.82" height="25.82"/><path class="cls-3" d="M1386.56,1430.32v25.32h-25.32v-25.32h25.32m.5-.5h-26.32v26.32h26.32v-26.32Z"/><rect class="cls-4" x="1439.94" y="1403.76" width="25.82" height="25.82"/><path class="cls-3" d="M1465.51,1404v25.31h-25.32V1404h25.32m.5-.5h-26.32v26.31H1466v-26.31Z"/><rect class="cls-4" x="1439.94" y="1430.07" width="25.82" height="25.82"/><path class="cls-3" d="M1465.51,1430.32v25.32h-25.32v-25.32h25.32m.5-.5h-26.32v26.32H1466v-26.32Z"/><rect class="cls-4" x="1545.2" y="1377.44" width="25.82" height="25.82"/><path class="cls-3" d="M1570.77,1377.69V1403h-25.32v-25.32h25.32m.5-.5H1545v26.32h26.32v-26.32Z"/><rect class="cls-4" x="1518.89" y="1377.44" width="25.82" height="25.82"/><path class="cls-3" d="M1544.45,1377.69V1403h-25.31v-25.32h25.31m.5-.5h-26.31v26.32H1545v-26.32Z"/><rect class="cls-4" x="1545.2" y="1456.39" width="25.82" height="25.82"/><path class="cls-3" d="M1570.77,1456.64V1482h-25.32v-25.31h25.32m.5-.5H1545v26.31h26.32v-26.31Z"/><rect class="cls-4" x="1518.89" y="1456.39" width="25.82" height="25.82"/><path class="cls-3" d="M1544.45,1456.64V1482h-25.31v-25.31h25.31m.5-.5h-26.31v26.31H1545v-26.31Z"/><rect class="cls-4" x="1492.57" y="1403.76" width="25.82" height="25.82"/><path class="cls-3" d="M1518.14,1404v25.31h-25.32V1404h25.32m.5-.5h-26.32v26.31h26.32v-26.31Z"/><rect class="cls-4" x="1492.57" y="1430.07" width="25.82" height="25.82"/><path class="cls-3" d="M1518.14,1430.32v25.32h-25.32v-25.32h25.32m.5-.5h-26.32v26.32h26.32v-26.32Z"/><rect class="cls-4" x="1571.52" y="1403.76" width="25.82" height="25.82"/><path class="cls-3" d="M1597.09,1404v25.31h-25.32V1404h25.32m.5-.5h-26.32v26.31h26.32v-26.31Z"/><rect class="cls-4" x="1571.52" y="1430.07" width="25.82" height="25.82"/><path class="cls-3" d="M1597.09,1430.32v25.32h-25.32v-25.32h25.32m.5-.5h-26.32v26.32h26.32v-26.32Z"/><path class="cls-4" d="M1439.94,1508.52a26.1,26.1,0,0,1,25.82-25.81v25.81Z"/><path class="cls-3" d="M1465.51,1483v25.31H1440.2a25.84,25.84,0,0,1,25.31-25.31m.5-.51a26.32,26.32,0,0,0-26.32,26.32H1466v-26.32Z"/><rect class="cls-5" x="1334.68" y="1377.44" width="25.82" height="25.82"/><path class="cls-3" d="M1360.24,1377.69V1403h-25.31v-25.32h25.31m.5-.5h-26.31v26.32h26.31v-26.32Z"/><rect class="cls-5" x="1334.68" y="1351.13" width="25.82" height="25.82"/><path class="cls-3" d="M1360.24,1351.38v25.31h-25.31v-25.31h25.31m.5-.5h-26.31v26.31h26.31v-26.31Z"/><rect class="cls-5" x="1334.68" y="1298.49" width="25.82" height="25.82"/><path class="cls-3" d="M1360.24,1298.74v25.32h-25.31v-25.32h25.31m.5-.5h-26.31v26.32h26.31v-26.32Z"/><rect class="cls-5" x="1360.99" y="1324.81" width="25.82" height="25.82"/><path class="cls-3" d="M1386.56,1325.06v25.32h-25.32v-25.32h25.32m.5-.5h-26.32v26.32h26.32v-26.32Z"/><rect class="cls-5" x="1360.99" y="1298.49" width="25.82" height="25.82"/><path class="cls-3" d="M1386.56,1298.74v25.32h-25.32v-25.32h25.32m.5-.5h-26.32v26.32h26.32v-26.32Z"/><rect class="cls-5" x="1387.31" y="1324.81" width="25.82" height="25.82"/><path class="cls-3" d="M1412.88,1325.06v25.32h-25.32v-25.32h25.32m.5-.5h-26.32v26.32h26.32v-26.32Z"/><rect class="cls-5" x="1413.63" y="1298.49" width="25.82" height="25.82"/><path class="cls-3" d="M1439.19,1298.74v25.32h-25.31v-25.32h25.31m.5-.5h-26.31v26.32h26.31v-26.32Z"/><rect class="cls-5" x="1439.94" y="1298.49" width="25.82" height="25.82"/><path class="cls-3" d="M1465.51,1298.74v25.32h-25.32v-25.32h25.32m.5-.5h-26.32v26.32H1466v-26.32Z"/><rect class="cls-5" x="1387.31" y="1298.49" width="25.82" height="25.82"/><path class="cls-3" d="M1412.88,1298.74v25.32h-25.32v-25.32h25.32m.5-.5h-26.32v26.32h26.32v-26.32Z"/><rect class="cls-5" x="1308.36" y="1430.07" width="25.82" height="25.82"/><path class="cls-3" d="M1333.93,1430.32v25.32h-25.32v-25.32h25.32m.5-.5h-26.32v26.32h26.32v-26.32Z"/><rect class="cls-5" x="1282.05" y="1456.39" width="25.82" height="25.82"/><path class="cls-3" d="M1307.61,1456.64V1482H1282.3v-25.31h25.31m.5-.5H1281.8v26.31h26.31v-26.31Z"/><rect class="cls-5" x="1282.05" y="1430.07" width="25.82" height="25.82"/><path class="cls-3" d="M1307.61,1430.32v25.32H1282.3v-25.32h25.31m.5-.5H1281.8v26.32h26.31v-26.32Z"/><rect class="cls-5" x="1282.05" y="1377.44" width="25.82" height="25.82"/><path class="cls-3" d="M1307.61,1377.69V1403H1282.3v-25.32h25.31m.5-.5H1281.8v26.32h26.31v-26.32Z"/><rect class="cls-5" x="1282.05" y="1403.76" width="25.82" height="25.82"/><path class="cls-3" d="M1307.61,1404v25.31H1282.3V1404h25.31m.5-.5H1281.8v26.31h26.31v-26.31Z"/><rect class="cls-5" x="1308.36" y="1403.76" width="25.82" height="25.82"/><path class="cls-3" d="M1333.93,1404v25.31h-25.32V1404h25.32m.5-.5h-26.32v26.31h26.32v-26.31Z"/><rect class="cls-5" x="1308.36" y="1377.44" width="25.82" height="25.82"/><path class="cls-3" d="M1333.93,1377.69V1403h-25.32v-25.32h25.32m.5-.5h-26.32v26.32h26.32v-26.32Z"/><rect class="cls-5" x="1308.36" y="1351.13" width="25.82" height="25.82"/><path class="cls-3" d="M1333.93,1351.38v25.31h-25.32v-25.31h25.32m.5-.5h-26.32v26.31h26.32v-26.31Z"/><rect class="cls-5" x="1334.68" y="1324.81" width="25.82" height="25.82"/><path class="cls-3" d="M1360.24,1325.06v25.32h-25.31v-25.32h25.31m.5-.5h-26.31v26.32h26.31v-26.32Z"/><rect class="cls-5" x="1308.36" y="1324.81" width="25.82" height="25.82"/><path class="cls-3" d="M1333.93,1325.06v25.32h-25.32v-25.32h25.32m.5-.5h-26.32v26.32h26.32v-26.32Z"/><rect class="cls-5" x="1282.05" y="1482.71" width="25.82" height="25.82"/><path class="cls-3" d="M1307.61,1483v25.32H1282.3V1483h25.31m.5-.5H1281.8v26.32h26.31v-26.32Z"/><rect class="cls-5" x="1282.05" y="1509.02" width="25.82" height="25.82"/><path class="cls-3" d="M1307.61,1509.27v25.32H1282.3v-25.32h25.31m.5-.5H1281.8v26.32h26.31v-26.32Z"/><rect class="cls-5" x="1255.73" y="1482.71" width="25.82" height="25.82"/><path class="cls-3" d="M1281.3,1483v25.32H1256V1483h25.32m.5-.5h-26.32v26.32h26.32v-26.32Z"/><rect class="cls-5" x="1255.73" y="1509.02" width="25.82" height="25.82"/><path class="cls-3" d="M1281.3,1509.27v25.32H1256v-25.32h25.32m.5-.5h-26.32v26.32h26.32v-26.32Z"/><rect class="cls-5" x="1282.05" y="1535.34" width="25.82" height="25.82"/><path class="cls-3" d="M1307.61,1535.59v25.31H1282.3v-25.31h25.31m.5-.5H1281.8v26.31h26.31v-26.31Z"/><rect class="cls-5" x="1308.36" y="1535.34" width="25.82" height="25.82"/><path class="cls-3" d="M1333.93,1535.59v25.31h-25.32v-25.31h25.32m.5-.5h-26.32v26.31h26.32v-26.31Z"/><rect class="cls-5" x="1360.99" y="1351.13" width="25.82" height="25.82"/><path class="cls-3" d="M1386.56,1351.38v25.31h-25.32v-25.31h25.32m.5-.5h-26.32v26.31h26.32v-26.31Z"/><rect class="cls-5" x="1413.63" y="1324.81" width="25.82" height="25.82"/><path class="cls-3" d="M1439.19,1325.06v25.32h-25.31v-25.32h25.31m.5-.5h-26.31v26.32h26.31v-26.32Z"/><rect class="cls-5" x="1466.26" y="1298.49" width="25.82" height="25.82"/><path class="cls-3" d="M1491.82,1298.74v25.32h-25.31v-25.32h25.31m.5-.5H1466v26.32h26.31v-26.32Z"/><rect class="cls-5" x="1492.57" y="1272.18" width="25.82" height="25.82"/><path class="cls-3" d="M1518.14,1272.43v25.31h-25.32v-25.31h25.32m.5-.5h-26.32v26.31h26.32v-26.31Z"/><rect class="cls-5" x="1518.89" y="1272.18" width="25.82" height="25.82"/><path class="cls-3" d="M1544.45,1272.43v25.31h-25.31v-25.31h25.31m.5-.5h-26.31v26.31H1545v-26.31Z"/><rect class="cls-5" x="1545.2" y="1272.18" width="25.82" height="25.82"/><path class="cls-3" d="M1570.77,1272.43v25.31h-25.32v-25.31h25.32m.5-.5H1545v26.31h26.32v-26.31Z"/><rect class="cls-5" x="1545.2" y="1298.49" width="25.82" height="25.82"/><path class="cls-3" d="M1570.77,1298.74v25.32h-25.32v-25.32h25.32m.5-.5H1545v26.32h26.32v-26.32Z"/><rect class="cls-5" x="1571.52" y="1298.49" width="25.82" height="25.82"/><path class="cls-3" d="M1597.09,1298.74v25.32h-25.32v-25.32h25.32m.5-.5h-26.32v26.32h26.32v-26.32Z"/><rect class="cls-5" x="1597.84" y="1298.49" width="25.82" height="25.82"/><path class="cls-3" d="M1623.4,1298.74v25.32h-25.31v-25.32h25.31m.5-.5h-26.31v26.32h26.31v-26.32Z"/><rect class="cls-5" x="1624.15" y="1298.49" width="25.82" height="25.82"/><path class="cls-3" d="M1649.72,1298.74v25.32H1624.4v-25.32h25.32m.5-.5H1623.9v26.32h26.32v-26.32Z"/><rect class="cls-5" x="1571.52" y="1324.81" width="25.82" height="25.82"/><path class="cls-3" d="M1597.09,1325.06v25.32h-25.32v-25.32h25.32m.5-.5h-26.32v26.32h26.32v-26.32Z"/><rect class="cls-5" x="1439.94" y="1272.18" width="25.82" height="25.82"/><path class="cls-3" d="M1465.51,1272.43v25.31h-25.32v-25.31h25.32m.5-.5h-26.32v26.31H1466v-26.31Z"/><rect class="cls-5" x="1466.26" y="1272.18" width="25.82" height="25.82"/><path class="cls-3" d="M1491.82,1272.43v25.31h-25.31v-25.31h25.31m.5-.5H1466v26.31h26.31v-26.31Z"/><rect class="cls-5" x="1387.31" y="1272.18" width="25.82" height="25.82"/><path class="cls-3" d="M1412.88,1272.43v25.31h-25.32v-25.31h25.32m.5-.5h-26.32v26.31h26.32v-26.31Z"/><rect class="cls-5" x="1413.63" y="1272.18" width="25.82" height="25.82"/><path class="cls-3" d="M1439.19,1272.43v25.31h-25.31v-25.31h25.31m.5-.5h-26.31v26.31h26.31v-26.31Z"/><rect class="cls-5" x="1413.63" y="1245.86" width="25.82" height="25.82"/><path class="cls-3" d="M1439.19,1246.11v25.32h-25.31v-25.32h25.31m.5-.5h-26.31v26.32h26.31v-26.32Z"/><rect class="cls-5" x="1439.94" y="1245.86" width="25.82" height="25.82"/><path class="cls-3" d="M1465.51,1246.11v25.32h-25.32v-25.32h25.32m.5-.5h-26.32v26.32H1466v-26.32Z"/><rect class="cls-5" x="1545.2" y="1324.81" width="25.82" height="25.82"/><path class="cls-3" d="M1570.77,1325.06v25.32h-25.32v-25.32h25.32m.5-.5H1545v26.32h26.32v-26.32Z"/><rect class="cls-5" x="1571.52" y="1351.13" width="25.82" height="25.82"/><path class="cls-3" d="M1597.09,1351.38v25.31h-25.32v-25.31h25.32m.5-.5h-26.32v26.31h26.32v-26.31Z"/><rect class="cls-5" x="1597.84" y="1324.81" width="25.82" height="25.82"/><path class="cls-3" d="M1623.4,1325.06v25.32h-25.31v-25.32h25.31m.5-.5h-26.31v26.32h26.31v-26.32Z"/><rect class="cls-5" x="1624.15" y="1324.81" width="25.82" height="25.82"/><path class="cls-3" d="M1649.72,1325.06v25.32H1624.4v-25.32h25.32m.5-.5H1623.9v26.32h26.32v-26.32Z"/><rect class="cls-5" x="1597.84" y="1351.13" width="25.82" height="25.82"/><path class="cls-3" d="M1623.4,1351.38v25.31h-25.31v-25.31h25.31m.5-.5h-26.31v26.31h26.31v-26.31Z"/><rect class="cls-5" x="1597.84" y="1377.44" width="25.82" height="25.82"/><path class="cls-3" d="M1623.4,1377.69V1403h-25.31v-25.32h25.31m.5-.5h-26.31v26.32h26.31v-26.32Z"/><rect class="cls-5" x="1624.15" y="1351.13" width="25.82" height="25.82"/><path class="cls-3" d="M1649.72,1351.38v25.31H1624.4v-25.31h25.32m.5-.5H1623.9v26.31h26.32v-26.31Z"/><rect class="cls-5" x="1650.47" y="1351.13" width="25.82" height="25.82"/><path class="cls-3" d="M1676,1351.38v25.31h-25.31v-25.31H1676m.5-.5h-26.31v26.31h26.31v-26.31Z"/><rect class="cls-5" x="1650.47" y="1377.44" width="25.82" height="25.82"/><path class="cls-3" d="M1676,1377.69V1403h-25.31v-25.32H1676m.5-.5h-26.31v26.32h26.31v-26.32Z"/><rect class="cls-5" x="1676.78" y="1403.76" width="25.82" height="25.82"/><path class="cls-3" d="M1702.35,1404v25.31H1677V1404h25.32m.5-.5h-26.32v26.31h26.32v-26.31Z"/><rect class="cls-5" x="1676.78" y="1430.07" width="25.82" height="25.82"/><path class="cls-3" d="M1702.35,1430.32v25.32H1677v-25.32h25.32m.5-.5h-26.32v26.32h26.32v-26.32Z"/><rect class="cls-5" x="1703.1" y="1456.39" width="25.82" height="25.82"/><path class="cls-3" d="M1728.67,1456.64V1482h-25.32v-25.31h25.32m.5-.5h-26.32v26.31h26.32v-26.31Z"/><rect class="cls-5" x="1676.78" y="1456.39" width="25.82" height="25.82"/><path class="cls-3" d="M1702.35,1456.64V1482H1677v-25.31h25.32m.5-.5h-26.32v26.31h26.32v-26.31Z"/><rect class="cls-5" x="1676.78" y="1482.71" width="25.82" height="25.82"/><path class="cls-3" d="M1702.35,1483v25.32H1677V1483h25.32m.5-.5h-26.32v26.32h26.32v-26.32Z"/><rect class="cls-5" x="1624.15" y="1377.44" width="25.82" height="25.82"/><path class="cls-3" d="M1649.72,1377.69V1403H1624.4v-25.32h25.32m.5-.5H1623.9v26.32h26.32v-26.32Z"/><rect class="cls-5" x="1650.47" y="1456.39" width="25.82" height="25.82"/><path class="cls-3" d="M1676,1456.64V1482h-25.31v-25.31H1676m.5-.5h-26.31v26.31h26.31v-26.31Z"/><rect class="cls-5" x="1650.47" y="1482.71" width="25.82" height="25.82"/><path class="cls-3" d="M1676,1483v25.32h-25.31V1483H1676m.5-.5h-26.31v26.32h26.31v-26.32Z"/><rect class="cls-5" x="1676.78" y="1509.02" width="25.82" height="25.82"/><path class="cls-3" d="M1702.35,1509.27v25.32H1677v-25.32h25.32m.5-.5h-26.32v26.32h26.32v-26.32Z"/><rect class="cls-5" x="1676.78" y="1535.34" width="25.82" height="25.82"/><path class="cls-3" d="M1702.35,1535.59v25.31H1677v-25.31h25.32m.5-.5h-26.32v26.31h26.32v-26.31Z"/><rect class="cls-5" x="1650.47" y="1509.02" width="25.82" height="25.82"/><path class="cls-3" d="M1676,1509.27v25.32h-25.31v-25.32H1676m.5-.5h-26.31v26.32h26.31v-26.32Z"/><rect class="cls-5" x="1650.47" y="1535.34" width="25.82" height="25.82"/><path class="cls-3" d="M1676,1535.59v25.31h-25.31v-25.31H1676m.5-.5h-26.31v26.31h26.31v-26.31Z"/><rect class="cls-5" x="1624.15" y="1535.34" width="25.82" height="25.82"/><path class="cls-3" d="M1649.72,1535.59v25.31H1624.4v-25.31h25.32m.5-.5H1623.9v26.31h26.32v-26.31Z"/><rect class="cls-5" x="1650.47" y="1403.76" width="25.82" height="25.82"/><path class="cls-3" d="M1676,1404v25.31h-25.31V1404H1676m.5-.5h-26.31v26.31h26.31v-26.31Z"/><rect class="cls-5" x="1650.47" y="1430.07" width="25.82" height="25.82"/><path class="cls-3" d="M1676,1430.32v25.32h-25.31v-25.32H1676m.5-.5h-26.31v26.32h26.31v-26.32Z"/><rect class="cls-5" x="1624.15" y="1403.76" width="25.82" height="25.82"/><path class="cls-3" d="M1649.72,1404v25.31H1624.4V1404h25.32m.5-.5H1623.9v26.31h26.32v-26.31Z"/><rect class="cls-5" x="1597.84" y="1403.76" width="25.82" height="25.82"/><path class="cls-3" d="M1623.4,1404v25.31h-25.31V1404h25.31m.5-.5h-26.31v26.31h26.31v-26.31Z"/><rect class="cls-5" x="1624.15" y="1430.07" width="25.82" height="25.82"/><path class="cls-3" d="M1649.72,1430.32v25.32H1624.4v-25.32h25.32m.5-.5H1623.9v26.32h26.32v-26.32Z"/><path class="cls-5" d="M1229.42,1508.52a26.09,26.09,0,0,1,25.81-25.81v25.81Z"/><path class="cls-3" d="M1255,1483v25.31h-25.31A25.84,25.84,0,0,1,1255,1483m.5-.51a26.32,26.32,0,0,0-26.31,26.32h26.31v-26.32Z"/><path class="cls-5" d="M1255.73,1482.21a26.1,26.1,0,0,1,25.82-25.82v25.82Z"/><path class="cls-3" d="M1281.3,1456.64V1482H1256a25.85,25.85,0,0,1,25.31-25.31m.5-.5a26.31,26.31,0,0,0-26.32,26.31h26.32v-26.31Z"/><path class="cls-5" d="M1282.05,1376.94a26.09,26.09,0,0,1,25.81-25.81v25.81Z"/><path class="cls-3" d="M1307.61,1351.38v25.31H1282.3a25.84,25.84,0,0,1,25.31-25.31m.5-.5a26.31,26.31,0,0,0-26.31,26.31h26.31v-26.31Z"/><path class="cls-5" d="M1255.73,1429.57a26.1,26.1,0,0,1,25.82-25.81v25.81Z"/><path class="cls-3" d="M1281.3,1404v25.31H1256A25.84,25.84,0,0,1,1281.3,1404m.5-.5a26.31,26.31,0,0,0-26.32,26.31h26.32v-26.31Z"/><path class="cls-5" d="M1308.36,1324.31a26.09,26.09,0,0,1,25.82-25.81v25.81Z"/><path class="cls-3" d="M1333.93,1298.75v25.31h-25.31a25.84,25.84,0,0,1,25.31-25.31m.5-.51a26.32,26.32,0,0,0-26.32,26.32h26.32v-26.32Z"/><path class="cls-5" d="M1361,1298a26.08,26.08,0,0,1,25.81-25.81V1298Z"/><path class="cls-3" d="M1386.56,1272.43v25.31h-25.31a25.84,25.84,0,0,1,25.31-25.31m.5-.5a26.32,26.32,0,0,0-26.32,26.31h26.32v-26.31Z"/><path class="cls-5" d="M1387.31,1271.68a26.1,26.1,0,0,1,25.81-25.82v25.82Z"/><path class="cls-3" d="M1412.88,1246.12v25.31h-25.32a25.85,25.85,0,0,1,25.32-25.31m.5-.51a26.32,26.32,0,0,0-26.32,26.32h26.32v-26.32Z"/><path class="cls-5" d="M1492.57,1271.68a26.11,26.11,0,0,1,25.82-25.82v25.82Z"/><path class="cls-3" d="M1518.14,1246.12v25.31h-25.31a25.84,25.84,0,0,1,25.31-25.31m.5-.51a26.32,26.32,0,0,0-26.32,26.32h26.32v-26.32Z"/><path class="cls-5" d="M1597.84,1298a26.09,26.09,0,0,1,25.81-25.81V1298Z"/><path class="cls-3" d="M1623.4,1272.43v25.31h-25.31a25.84,25.84,0,0,1,25.31-25.31m.5-.5a26.31,26.31,0,0,0-26.31,26.31h26.31v-26.31Z"/><path class="cls-5" d="M1518.89,1271.68v-25.82a26.1,26.1,0,0,1,25.81,25.82Z"/><path class="cls-3" d="M1519.14,1246.12a25.84,25.84,0,0,1,25.31,25.31h-25.31v-25.31m-.5-.51v26.32H1545a26.31,26.31,0,0,0-26.31-26.32Z"/><path class="cls-5" d="M1466.26,1271.68v-25.82a26.1,26.1,0,0,1,25.81,25.82Z"/><path class="cls-3" d="M1466.51,1246.12a25.84,25.84,0,0,1,25.31,25.31h-25.31v-25.31m-.5-.51v26.32h26.31a26.31,26.31,0,0,0-26.31-26.32Z"/><path class="cls-5" d="M1571.52,1298v-25.81a26.08,26.08,0,0,1,25.81,25.81Z"/><path class="cls-3" d="M1571.77,1272.43a25.84,25.84,0,0,1,25.31,25.31h-25.31v-25.31m-.5-.5v26.31h26.32a26.32,26.32,0,0,0-26.32-26.31Z"/><path class="cls-5" d="M1650.47,1350.63v-25.82a26.09,26.09,0,0,1,25.81,25.82Z"/><path class="cls-3" d="M1650.72,1325.06a25.86,25.86,0,0,1,25.31,25.32h-25.31v-25.32m-.5-.5v26.32h26.31a26.31,26.31,0,0,0-26.31-26.32Z"/><path class="cls-5" d="M1676.78,1403.26v-25.82a26.11,26.11,0,0,1,25.82,25.82Z"/><path class="cls-3" d="M1677,1377.7a25.84,25.84,0,0,1,25.31,25.31H1677V1377.7m-.5-.51v26.32h26.32a26.32,26.32,0,0,0-26.32-26.32Z"/><path class="cls-5" d="M1703.1,1455.89v-25.82a26.1,26.1,0,0,1,25.81,25.82Z"/><path class="cls-3" d="M1703.35,1430.33a25.84,25.84,0,0,1,25.31,25.31h-25.31v-25.31m-.5-.51v26.32h26.32a26.33,26.33,0,0,0-26.32-26.32Z"/><path class="cls-5" d="M1703.1,1534.84V1509a26.1,26.1,0,0,1,25.81,25.82Z"/><path class="cls-3" d="M1703.35,1509.28a25.84,25.84,0,0,1,25.31,25.31h-25.31v-25.31m-.5-.51v26.32h26.32a26.32,26.32,0,0,0-26.32-26.32Z"/><path class="cls-5" d="M1624.15,1298v-25.81A26.1,26.1,0,0,1,1650,1298Z"/><path class="cls-3" d="M1624.4,1272.43a25.84,25.84,0,0,1,25.31,25.31H1624.4v-25.31m-.5-.5v26.31h26.32a26.31,26.31,0,0,0-26.32-26.31Z"/><path class="cls-5" d="M1703.1,1535.34h25.81a26.09,26.09,0,0,1-25.81,25.81Z"/><path class="cls-3" d="M1728.66,1535.59a25.84,25.84,0,0,1-25.31,25.31v-25.31h25.31m.51-.5h-26.32v26.31a26.32,26.32,0,0,0,26.32-26.31Z"/><path class="cls-5" d="M1703.1,1482.71h25.81a26.09,26.09,0,0,1-25.81,25.81Z"/><path class="cls-3" d="M1728.66,1483a25.85,25.85,0,0,1-25.31,25.32V1483h25.31m.51-.5h-26.32v26.32a26.32,26.32,0,0,0,26.32-26.32Z"/><path class="cls-5" d="M1387.31,1351.13h25.81a26.08,26.08,0,0,1-25.81,25.81Z"/><path class="cls-3" d="M1412.87,1351.38a25.84,25.84,0,0,1-25.31,25.31v-25.31h25.31m.51-.5h-26.32v26.31a26.32,26.32,0,0,0,26.32-26.31Z"/><path class="cls-5" d="M1334.68,1403.76h25.81a26.09,26.09,0,0,1-25.81,25.81Z"/><path class="cls-3" d="M1360.24,1404a25.84,25.84,0,0,1-25.31,25.31V1404h25.31m.5-.5h-26.31v26.31h0a26.31,26.31,0,0,0,26.31-26.31Z"/><path class="cls-5" d="M1308.36,1456.39h25.82a26.1,26.1,0,0,1-25.82,25.81Z"/><path class="cls-3" d="M1333.92,1456.64a25.84,25.84,0,0,1-25.31,25.31v-25.31h25.31m.51-.5h-26.32v26.31h0a26.31,26.31,0,0,0,26.32-26.31Z"/><path class="cls-5" d="M1439.94,1324.81h25.82a26.09,26.09,0,0,1-25.82,25.81Z"/><path class="cls-3" d="M1465.5,1325.06a25.84,25.84,0,0,1-25.31,25.31v-25.31h25.31m.51-.5h-26.32v26.32a26.32,26.32,0,0,0,26.32-26.32Z"/><path class="cls-5" d="M1492.57,1298.49h25.82a26.11,26.11,0,0,1-25.82,25.82Z"/><path class="cls-3" d="M1518.13,1298.74a25.85,25.85,0,0,1-25.31,25.32v-25.32h25.31m.51-.5h-26.32v26.32a26.32,26.32,0,0,0,26.32-26.32Z"/><path class="cls-5" d="M1544.7,1324.31a26.1,26.1,0,0,1-25.81-25.82h25.81Z"/><path class="cls-3" d="M1544.45,1298.74v25.32a25.87,25.87,0,0,1-25.31-25.32h25.31m.5-.5h-26.31a26.31,26.31,0,0,0,26.31,26.32v-26.32Z"/><path class="cls-5" d="M1571,1376.94a26.08,26.08,0,0,1-25.81-25.81H1571Z"/><path class="cls-3" d="M1570.77,1351.38v25.31a25.84,25.84,0,0,1-25.31-25.31h25.31m.5-.5H1545a26.32,26.32,0,0,0,26.32,26.31v-26.31Z"/><path class="cls-5" d="M1597.34,1403.26a26.11,26.11,0,0,1-25.82-25.82h25.82Z"/><path class="cls-3" d="M1597.09,1377.69V1403a25.84,25.84,0,0,1-25.31-25.31h25.31m.5-.5h-26.32a26.32,26.32,0,0,0,26.32,26.32v-26.32Z"/><path class="cls-5" d="M1281.55,1561.15a26.1,26.1,0,0,1-25.82-25.81h25.82Z"/><path class="cls-3" d="M1281.3,1535.59v25.31a25.84,25.84,0,0,1-25.31-25.31h25.31m.5-.5h-26.32a26.31,26.31,0,0,0,26.32,26.31v-26.31Z"/><path class="cls-5" d="M1255.23,1534.83a26.08,26.08,0,0,1-25.81-25.81h25.81Z"/><path class="cls-3" d="M1255,1509.27v25.31a25.84,25.84,0,0,1-25.31-25.31H1255m.5-.5h-26.31a26.32,26.32,0,0,0,26.31,26.32v-26.32Z"/><path class="cls-5" d="M1281.55,1455.89a26.11,26.11,0,0,1-25.82-25.82h25.82Z"/><path class="cls-3" d="M1281.3,1430.32v25.31a25.84,25.84,0,0,1-25.31-25.31h25.31m.5-.5h-26.32a26.32,26.32,0,0,0,26.32,26.32v-26.32Z"/><path class="cls-5" d="M1623.65,1455.89a26.1,26.1,0,0,1-25.81-25.82h25.81Z"/><path class="cls-3" d="M1623.4,1430.32v25.31a25.84,25.84,0,0,1-25.31-25.31h25.31m.5-.5h-26.31a26.31,26.31,0,0,0,26.31,26.32v-26.32Z"/><rect class="cls-3" x="1308.36" y="1482.71" width="25.82" height="25.82"/><path class="cls-3" d="M1333.93,1483v25.32h-25.32V1483h25.32m.5-.5h-26.32v26.32h26.32v-26.32Z"/><rect class="cls-3" x="1334.68" y="1482.71" width="25.82" height="25.82"/><path class="cls-3" d="M1360.24,1483v25.32h-25.31V1483h25.31m.5-.5h-26.31v26.32h26.31v-26.32Z"/><rect class="cls-3" x="1334.68" y="1509.02" width="25.82" height="25.82"/><path class="cls-3" d="M1360.24,1509.27v25.32h-25.31v-25.32h25.31m.5-.5h-26.31v26.32h26.31v-26.32Z"/><rect class="cls-3" x="1360.99" y="1535.34" width="25.82" height="25.82"/><path class="cls-3" d="M1386.56,1535.59v25.31h-25.32v-25.31h25.32m.5-.5h-26.32v26.31h26.32v-26.31Z"/><rect class="cls-3" x="1387.31" y="1535.34" width="25.82" height="25.82"/><path class="cls-3" d="M1412.88,1535.59v25.31h-25.32v-25.31h25.32m.5-.5h-26.32v26.31h26.32v-26.31Z"/><rect class="cls-3" x="1413.63" y="1535.34" width="25.82" height="25.82"/><path class="cls-3" d="M1439.19,1535.59v25.31h-25.31v-25.31h25.31m.5-.5h-26.31v26.31h26.31v-26.31Z"/><rect class="cls-3" x="1413.63" y="1509.02" width="25.82" height="25.82"/><path class="cls-3" d="M1439.19,1509.27v25.32h-25.31v-25.32h25.31m.5-.5h-26.31v26.32h26.31v-26.32Z"/><rect class="cls-3" x="1439.94" y="1535.34" width="25.82" height="25.82"/><path class="cls-3" d="M1465.51,1535.59v25.31h-25.32v-25.31h25.32m.5-.5h-26.32v26.31H1466v-26.31Z"/><rect class="cls-3" x="1439.94" y="1509.02" width="25.82" height="25.82"/><path class="cls-3" d="M1465.51,1509.27v25.32h-25.32v-25.32h25.32m.5-.5h-26.32v26.32H1466v-26.32Z"/><rect class="cls-3" x="1413.63" y="1482.71" width="25.82" height="25.82"/><path class="cls-3" d="M1439.19,1483v25.32h-25.31V1483h25.31m.5-.5h-26.31v26.32h26.31v-26.32Z"/><rect class="cls-3" x="1466.26" y="1535.34" width="25.82" height="25.82"/><path class="cls-3" d="M1491.82,1535.59v25.31h-25.31v-25.31h25.31m.5-.5H1466v26.31h26.31v-26.31Z"/><rect class="cls-3" x="1439.94" y="1377.44" width="25.82" height="25.82"/><path class="cls-3" d="M1465.51,1377.69V1403h-25.32v-25.32h25.32m.5-.5h-26.32v26.32H1466v-26.32Z"/><rect class="cls-3" x="1466.26" y="1377.44" width="25.82" height="25.82"/><path class="cls-3" d="M1491.82,1377.69V1403h-25.31v-25.32h25.31m.5-.5H1466v26.32h26.31v-26.32Z"/><rect class="cls-3" x="1492.57" y="1377.44" width="25.82" height="25.82"/><path class="cls-3" d="M1518.14,1377.69V1403h-25.32v-25.32h25.32m.5-.5h-26.32v26.32h26.32v-26.32Z"/><rect class="cls-3" x="1413.63" y="1351.13" width="25.82" height="25.82"/><path class="cls-3" d="M1439.19,1351.38v25.31h-25.31v-25.31h25.31m.5-.5h-26.31v26.31h26.31v-26.31Z"/><rect class="cls-3" x="1360.99" y="1377.44" width="25.82" height="25.82"/><path class="cls-3" d="M1386.56,1377.69V1403h-25.32v-25.32h25.32m.5-.5h-26.32v26.32h26.32v-26.32Z"/><rect class="cls-3" x="1439.94" y="1351.13" width="25.82" height="25.82"/><path class="cls-3" d="M1465.51,1351.38v25.31h-25.32v-25.31h25.32m.5-.5h-26.32v26.31H1466v-26.31Z"/><rect class="cls-3" x="1466.26" y="1351.13" width="25.82" height="25.82"/><path class="cls-3" d="M1491.82,1351.38v25.31h-25.31v-25.31h25.31m.5-.5H1466v26.31h26.31v-26.31Z"/><rect class="cls-3" x="1492.57" y="1351.13" width="25.82" height="25.82"/><path class="cls-3" d="M1518.14,1351.38v25.31h-25.32v-25.31h25.32m.5-.5h-26.32v26.31h26.32v-26.31Z"/><rect class="cls-3" x="1518.89" y="1351.13" width="25.82" height="25.82"/><path class="cls-3" d="M1544.45,1351.38v25.31h-25.31v-25.31h25.31m.5-.5h-26.31v26.31H1545v-26.31Z"/><rect class="cls-3" x="1466.26" y="1324.81" width="25.82" height="25.82"/><path class="cls-3" d="M1491.82,1325.06v25.32h-25.31v-25.32h25.31m.5-.5H1466v26.32h26.31v-26.32Z"/><rect class="cls-3" x="1492.57" y="1324.81" width="25.82" height="25.82"/><path class="cls-3" d="M1518.14,1325.06v25.32h-25.32v-25.32h25.32m.5-.5h-26.32v26.32h26.32v-26.32Z"/><rect class="cls-3" x="1518.89" y="1324.81" width="25.82" height="25.82"/><path class="cls-3" d="M1544.45,1325.06v25.32h-25.31v-25.32h25.31m.5-.5h-26.31v26.32H1545v-26.32Z"/><rect class="cls-3" x="1439.94" y="1456.39" width="25.82" height="25.82"/><path class="cls-3" d="M1465.51,1456.64V1482h-25.32v-25.31h25.32m.5-.5h-26.32v26.31H1466v-26.31Z"/><rect class="cls-3" x="1466.26" y="1456.39" width="25.82" height="25.82"/><path class="cls-3" d="M1491.82,1456.64V1482h-25.31v-25.31h25.31m.5-.5H1466v26.31h26.31v-26.31Z"/><rect class="cls-3" x="1466.26" y="1430.07" width="25.82" height="25.82"/><path class="cls-3" d="M1491.82,1430.32v25.32h-25.31v-25.32h25.31m.5-.5H1466v26.32h26.31v-26.32Z"/><rect class="cls-3" x="1492.57" y="1456.39" width="25.82" height="25.82"/><path class="cls-3" d="M1518.14,1456.64V1482h-25.32v-25.31h25.32m.5-.5h-26.32v26.31h26.32v-26.31Z"/><rect class="cls-3" x="1545.2" y="1430.07" width="25.82" height="25.82"/><path class="cls-3" d="M1570.77,1430.32v25.32h-25.32v-25.32h25.32m.5-.5H1545v26.32h26.32v-26.32Z"/><rect class="cls-3" x="1545.2" y="1403.76" width="25.82" height="25.82"/><path class="cls-3" d="M1570.77,1404v25.31h-25.32V1404h25.32m.5-.5H1545v26.31h26.32v-26.31Z"/><rect class="cls-3" x="1518.89" y="1403.76" width="25.82" height="25.82"/><path class="cls-3" d="M1544.45,1404v25.31h-25.31V1404h25.31m.5-.5h-26.31v26.31H1545v-26.31Z"/><rect class="cls-3" x="1413.63" y="1430.07" width="25.82" height="25.82"/><path class="cls-3" d="M1439.19,1430.32v25.32h-25.31v-25.32h25.31m.5-.5h-26.31v26.32h26.31v-26.32Z"/><rect class="cls-3" x="1413.63" y="1403.76" width="25.82" height="25.82"/><path class="cls-3" d="M1439.19,1404v25.31h-25.31V1404h25.31m.5-.5h-26.31v26.31h26.31v-26.31Z"/><rect class="cls-3" x="1387.31" y="1403.76" width="25.82" height="25.82"/><path class="cls-3" d="M1412.88,1404v25.31h-25.32V1404h25.32m.5-.5h-26.32v26.31h26.32v-26.31Z"/><rect class="cls-3" x="1466.26" y="1509.02" width="25.82" height="25.82"/><path class="cls-3" d="M1491.82,1509.27v25.32h-25.31v-25.32h25.31m.5-.5H1466v26.32h26.31v-26.32Z"/><rect class="cls-3" x="1466.26" y="1482.71" width="25.82" height="25.82"/><path class="cls-3" d="M1491.82,1483v25.32h-25.31V1483h25.31m.5-.5H1466v26.32h26.31v-26.32Z"/><rect class="cls-3" x="1492.57" y="1535.34" width="25.82" height="25.82"/><path class="cls-3" d="M1518.14,1535.59v25.31h-25.32v-25.31h25.32m.5-.5h-26.32v26.31h26.32v-26.31Z"/><rect class="cls-3" x="1492.57" y="1509.02" width="25.82" height="25.82"/><path class="cls-3" d="M1518.14,1509.27v25.32h-25.32v-25.32h25.32m.5-.5h-26.32v26.32h26.32v-26.32Z"/><rect class="cls-3" x="1492.57" y="1482.71" width="25.82" height="25.82"/><path class="cls-3" d="M1518.14,1483v25.32h-25.32V1483h25.32m.5-.5h-26.32v26.32h26.32v-26.32Z"/><rect class="cls-3" x="1518.89" y="1535.34" width="25.82" height="25.82"/><path class="cls-3" d="M1544.45,1535.59v25.31h-25.31v-25.31h25.31m.5-.5h-26.31v26.31H1545v-26.31Z"/><rect class="cls-3" x="1545.2" y="1535.34" width="25.82" height="25.82"/><path class="cls-3" d="M1570.77,1535.59v25.31h-25.32v-25.31h25.32m.5-.5H1545v26.31h26.32v-26.31Z"/><rect class="cls-3" x="1571.52" y="1535.34" width="25.82" height="25.82"/><path class="cls-3" d="M1597.09,1535.59v25.31h-25.32v-25.31h25.32m.5-.5h-26.32v26.31h26.32v-26.31Z"/><rect class="cls-3" x="1571.52" y="1456.39" width="25.82" height="25.82"/><path class="cls-3" d="M1597.09,1456.64V1482h-25.32v-25.31h25.32m.5-.5h-26.32v26.31h26.32v-26.31Z"/><rect class="cls-3" x="1597.84" y="1456.39" width="25.82" height="25.82"/><path class="cls-3" d="M1623.4,1456.64V1482h-25.31v-25.31h25.31m.5-.5h-26.31v26.31h26.31v-26.31Z"/><rect class="cls-3" x="1624.15" y="1456.39" width="25.82" height="25.82"/><path class="cls-3" d="M1649.72,1456.64V1482H1624.4v-25.31h25.32m.5-.5H1623.9v26.31h26.32v-26.31Z"/><rect class="cls-3" x="1518.89" y="1509.02" width="25.82" height="25.82"/><path class="cls-3" d="M1544.45,1509.27v25.32h-25.31v-25.32h25.31m.5-.5h-26.31v26.32H1545v-26.32Z"/><rect class="cls-3" x="1518.89" y="1482.71" width="25.82" height="25.82"/><path class="cls-3" d="M1544.45,1483v25.32h-25.31V1483h25.31m.5-.5h-26.31v26.32H1545v-26.32Z"/><path class="cls-3" d="M1597.84,1535.34h25.81a26.09,26.09,0,0,1-25.81,25.81Z"/><path class="cls-3" d="M1623.4,1535.59a25.85,25.85,0,0,1-25.31,25.31v-25.31h25.31m.5-.5h-26.31v26.31a26.31,26.31,0,0,0,26.31-26.31Z"/><path class="cls-3" d="M1624.15,1509H1650a26.09,26.09,0,0,1-25.82,25.81Z"/><path class="cls-3" d="M1649.71,1509.27a25.84,25.84,0,0,1-25.31,25.31v-25.31h25.31m.51-.5H1623.9v26.32a26.32,26.32,0,0,0,26.32-26.32Z"/><rect class="cls-3" x="1597.84" y="1509.02" width="25.82" height="25.82"/><path class="cls-3" d="M1623.4,1509.27v25.32h-25.31v-25.32h25.31m.5-.5h-26.31v26.32h26.31v-26.32Z"/><rect class="cls-3" x="1597.84" y="1482.71" width="25.82" height="25.82"/><path class="cls-3" d="M1623.4,1483v25.32h-25.31V1483h25.31m.5-.5h-26.31v26.32h26.31v-26.32Z"/><rect class="cls-3" x="1624.15" y="1482.71" width="25.82" height="25.82"/><path class="cls-3" d="M1649.72,1483v25.32H1624.4V1483h25.32m.5-.5H1623.9v26.32h26.32v-26.32Z"/><rect class="cls-3" x="1334.68" y="1456.39" width="25.82" height="25.82"/><path class="cls-3" d="M1360.24,1456.64V1482h-25.31v-25.31h25.31m.5-.5h-26.31v26.31h26.31v-26.31Z"/><rect class="cls-3" x="1334.68" y="1430.07" width="25.82" height="25.82"/><path class="cls-3" d="M1360.24,1430.32v25.32h-25.31v-25.32h25.31m.5-.5h-26.31v26.32h26.31v-26.32Z"/><rect class="cls-3" x="1360.99" y="1456.39" width="25.82" height="25.82"/><path class="cls-3" d="M1386.56,1456.64V1482h-25.32v-25.31h25.32m.5-.5h-26.32v26.31h26.32v-26.31Z"/><path class="cls-3" d="M1334.18,1534.83a26.09,26.09,0,0,1-25.82-25.81h25.82Z"/><path class="cls-3" d="M1333.93,1509.27v25.31a25.84,25.84,0,0,1-25.31-25.31h25.31m.5-.5h-26.32a26.32,26.32,0,0,0,26.32,26.32v-26.32Z"/><path class="cls-3" d="M1360.49,1561.15a26.09,26.09,0,0,1-25.81-25.81h25.81Z"/><path class="cls-3" d="M1360.24,1535.59v25.31a25.85,25.85,0,0,1-25.31-25.31h25.31m.5-.5h-26.31a26.31,26.31,0,0,0,26.31,26.31v-26.31Z"/><path class="cls-2" d="M1361,1508.52a26.08,26.08,0,0,1,25.81-25.81v25.81Z"/><path class="cls-3" d="M1386.56,1483v25.31h-25.31a25.84,25.84,0,0,1,25.31-25.31m.5-.51a26.33,26.33,0,0,0-26.32,26.32h26.32v-26.32Z"/><path class="cls-2" d="M1387.31,1508.52v-25.81a26.08,26.08,0,0,1,25.81,25.81Z"/><path class="cls-3" d="M1387.56,1483a25.84,25.84,0,0,1,25.31,25.31h-25.31V1483m-.5-.51v26.32h26.32a26.33,26.33,0,0,0-26.32-26.32Z"/><path class="cls-2" d="M1387.31,1509h25.81a26.08,26.08,0,0,1-25.81,25.81Z"/><path class="cls-3" d="M1412.87,1509.27a25.84,25.84,0,0,1-25.31,25.31v-25.31h25.31m.51-.5h-26.32v26.32a26.33,26.33,0,0,0,26.32-26.32Z"/><path class="cls-2" d="M1386.81,1534.83A26.08,26.08,0,0,1,1361,1509h25.81Z"/><path class="cls-3" d="M1386.56,1509.27v25.31a25.84,25.84,0,0,1-25.31-25.31h25.31m.5-.5h-26.32a26.33,26.33,0,0,0,26.32,26.32v-26.32Z"/><path class="cls-2" d="M1545.21,1508.52a26.08,26.08,0,0,1,25.81-25.81v25.81Z"/><path class="cls-3" d="M1570.77,1483v25.31h-25.31a25.84,25.84,0,0,1,25.31-25.31m.5-.51a26.33,26.33,0,0,0-26.32,26.32h26.32v-26.32Z"/><path class="cls-2" d="M1571.52,1508.52v-25.81a26.08,26.08,0,0,1,25.81,25.81Z"/><path class="cls-3" d="M1571.77,1483a25.84,25.84,0,0,1,25.31,25.31h-25.31V1483m-.5-.51v26.32h26.32a26.33,26.33,0,0,0-26.32-26.32Z"/><path class="cls-2" d="M1571.52,1509h25.81a26.08,26.08,0,0,1-25.81,25.81Z"/><path class="cls-3" d="M1597.08,1509.27a25.84,25.84,0,0,1-25.31,25.31v-25.31h25.31m.51-.5h-26.32v26.32a26.33,26.33,0,0,0,26.32-26.32Z"/><path class="cls-2" d="M1571,1534.83a26.08,26.08,0,0,1-25.81-25.81H1571Z"/><path class="cls-3" d="M1570.77,1509.27v25.31a25.84,25.84,0,0,1-25.31-25.31h25.31m.5-.5H1545a26.33,26.33,0,0,0,26.32,26.32v-26.32Z"/></svg>