<?xml version="1.0" encoding="utf-8"?>
<!-- Generator: Adobe Illustrator 25.3.1, SVG Export Plug-In . SVG Version: 6.00 Build 0)  -->
<svg version="1.1" id="Layer_1" xmlns="http://www.w3.org/2000/svg" xmlns:xlink="http://www.w3.org/1999/xlink" x="0px" y="0px"
	 viewBox="0 0 1920 1080" style="enable-background:new 0 0 1920 1080;" xml:space="preserve">
<style type="text/css">
	.st0{fill:#FFFFFF;stroke:#FFFFFF;stroke-width:0.5;stroke-miterlimit:10;}
	.st1{fill:#FFFFFF;}
	.st2{fill:#FFEE1A;}
	.st3{fill:#29A3CE;}
	.st4{fill:#131421;}
</style>
<rect x="1197.2" y="233.8" class="st0" width="564" height="636.8"/>
<image style="overflow:visible;" width="563" height="576" xlink:href="E89CFC6.jpg"  transform="matrix(1 0 0 1 42.8413 -2195.1882)">
</image>
<image style="overflow:visible;" width="240" height="240" xlink:href="E89CFC1.jpg"  transform="matrix(2.3997 0 0 2.3997 599.2534 -2195.043)">
</image>
<image style="overflow:visible;" width="512" height="640" xlink:href="E89CFC3.jpg"  transform="matrix(1 0 0 1 1177.1475 -2283.4312)">
</image>
<g>
	<rect x="1040.5" y="40.5" class="st1" width="19" height="19"/>
	<path d="M1059,41v18h-18V41H1059 M1060,40h-20v20h20V40L1060,40z"/>
</g>
<g>
	<path class="st1" d="M1080.5,59.5c0.3-10.4,8.6-18.7,19-19v19H1080.5z"/>
	<g>
		<path d="M1099,41v18l-18,0C1081.5,49.3,1089.3,41.5,1099,41 M1100,40c-11,0-20,9-20,20v0h20V40L1100,40z"/>
	</g>
</g>
<g>
	<path class="st1" d="M1120.5,59.5v-19c10.4,0.3,18.7,8.6,19,19H1120.5z"/>
	<g>
		<path d="M1121,41c9.7,0.5,17.5,8.3,18,18h-18V41 M1120,40v20h20v0C1140,49,1131,40,1120,40L1120,40z"/>
	</g>
</g>
<g>
	<path class="st1" d="M1160.5,40.5h19c-0.3,10.4-8.6,18.7-19,19V40.5z"/>
	<g>
		<path d="M1179,41c-0.5,9.7-8.3,17.5-18,18V41H1179 M1180,40h-20v20C1171,60,1180,51,1180,40L1180,40L1180,40z"/>
	</g>
</g>
<g>
	<path class="st1" d="M1219.5,59.5c-10.4-0.3-18.7-8.6-19-19h19V59.5z"/>
	<g>
		<path d="M1219,41v18c-9.7-0.5-17.5-8.3-18-18H1219 M1220,40h-20v0c0,11,9,20,20,20V40L1220,40z"/>
	</g>
</g>
<g>
	<g>
		<rect x="1387.6" y="526.4" width="25.3" height="25.3"/>
		<path d="M1412.4,526.9v24.3h-24.3v-24.3H1412.4 M1413.4,525.9h-26.3v26.3h26.3V525.9L1413.4,525.9z"/>
	</g>
	<g>
		<g>
			<rect x="1571.5" y="657.7" class="st2" width="25.8" height="25.8"/>
			<g>
				<path class="st1" d="M1597.1,658v25.3h-25.3V658H1597.1 M1597.6,657.5h-26.3v26.3h26.3V657.5L1597.6,657.5z"/>
			</g>
		</g>
		<g>
			<rect x="1545.2" y="657.7" class="st2" width="25.8" height="25.8"/>
			<g>
				<path class="st1" d="M1570.8,658v25.3h-25.3V658H1570.8 M1571.3,657.5H1545v26.3h26.3V657.5L1571.3,657.5z"/>
			</g>
		</g>
		<g>
			<rect x="1518.9" y="657.7" class="st2" width="25.8" height="25.8"/>
			<g>
				<path class="st1" d="M1544.5,658v25.3h-25.3V658H1544.5 M1545,657.5h-26.3v26.3h26.3V657.5L1545,657.5z"/>
			</g>
		</g>
		<g>
			<rect x="1492.6" y="657.7" class="st2" width="25.8" height="25.8"/>
			<g>
				<path class="st1" d="M1518.1,658v25.3h-25.3V658H1518.1 M1518.6,657.5h-26.3v26.3h26.3V657.5L1518.6,657.5z"/>
			</g>
		</g>
		<g>
			<rect x="1466.3" y="657.7" class="st2" width="25.8" height="25.8"/>
			<g>
				<path class="st1" d="M1491.8,658v25.3h-25.3V658H1491.8 M1492.3,657.5H1466v26.3h26.3V657.5L1492.3,657.5z"/>
			</g>
		</g>
		<g>
			<rect x="1439.9" y="657.7" class="st2" width="25.8" height="25.8"/>
			<g>
				<path class="st1" d="M1465.5,658v25.3h-25.3V658H1465.5 M1466,657.5h-26.3v26.3h26.3V657.5L1466,657.5z"/>
			</g>
		</g>
		<g>
			<rect x="1413.6" y="657.7" class="st2" width="25.8" height="25.8"/>
			<g>
				<path class="st1" d="M1439.2,658v25.3h-25.3V658H1439.2 M1439.7,657.5h-26.3v26.3h26.3V657.5L1439.7,657.5z"/>
			</g>
		</g>
		<g>
			<rect x="1387.3" y="657.7" class="st2" width="25.8" height="25.8"/>
			<g>
				<path class="st1" d="M1412.9,658v25.3h-25.3V658H1412.9 M1413.4,657.5h-26.3v26.3h26.3V657.5L1413.4,657.5z"/>
			</g>
		</g>
		<g>
			<path class="st2" d="M1363.1,683.6c0.1-14.2,11.6-25.7,25.8-25.8v25.8H1363.1z"/>
			<g>
				<path class="st1" d="M1388.7,658v25.3h-25.3C1363.6,669.5,1374.8,658.3,1388.7,658 M1389.2,657.5L1389.2,657.5
					c-14.5,0-26.3,11.8-26.3,26.3h26.3V657.5L1389.2,657.5z"/>
			</g>
		</g>
		<g>
			<path class="st2" d="M1336.8,709.9c0.1-14.2,11.6-25.7,25.8-25.8v25.8H1336.8z"/>
			<g>
				<path class="st1" d="M1362.3,684.3v25.3H1337C1337.3,695.8,1348.5,684.6,1362.3,684.3 M1362.8,683.8L1362.8,683.8
					c-14.5,0-26.3,11.8-26.3,26.3h26.3V683.8L1362.8,683.8z"/>
			</g>
		</g>
		<g>
			<rect x="1596.8" y="684.1" class="st2" width="25.8" height="25.8"/>
			<g>
				<path class="st1" d="M1622.3,684.3v25.3H1597v-25.3H1622.3 M1622.8,683.8h-26.3v26.3h26.3V683.8L1622.8,683.8z"/>
			</g>
		</g>
		<g>
			<path class="st2" d="M1596.8,683.6v-25.8c14.2,0.1,25.7,11.6,25.8,25.8H1596.8z"/>
			<g>
				<path class="st1" d="M1597,658c13.8,0.3,25,11.5,25.3,25.3H1597V658 M1596.5,657.5v26.3h26.3
					C1622.8,669.3,1611.1,657.5,1596.5,657.5L1596.5,657.5z"/>
			</g>
		</g>
		<g>
			<path class="st2" d="M1623.1,709.9v-25.8c14.2,0.1,25.7,11.6,25.8,25.8H1623.1z"/>
			<g>
				<path class="st1" d="M1623.3,684.3c13.8,0.3,25,11.5,25.3,25.3h-25.3V684.3 M1622.8,683.8v26.3h26.3
					C1649.2,695.6,1637.4,683.8,1622.8,683.8L1622.8,683.8z"/>
			</g>
		</g>
		<g>
			<rect x="1571.5" y="684.1" class="st2" width="25.8" height="25.8"/>
			<g>
				<path class="st1" d="M1597.1,684.3v25.3h-25.3v-25.3H1597.1 M1597.6,683.8h-26.3v26.3h26.3V683.8L1597.6,683.8z"/>
			</g>
		</g>
		<g>
			<rect x="1545.2" y="684.1" class="st2" width="25.8" height="25.8"/>
			<g>
				<path class="st1" d="M1570.8,684.3v25.3h-25.3v-25.3H1570.8 M1571.3,683.8H1545v26.3h26.3V683.8L1571.3,683.8z"/>
			</g>
		</g>
		<g>
			<rect x="1518.9" y="684.1" class="st2" width="25.8" height="25.8"/>
			<g>
				<path class="st1" d="M1544.5,684.3v25.3h-25.3v-25.3H1544.5 M1545,683.8h-26.3v26.3h26.3V683.8L1545,683.8z"/>
			</g>
		</g>
		<g>
			<rect x="1492.6" y="684.1" class="st2" width="25.8" height="25.8"/>
			<g>
				<path class="st1" d="M1518.1,684.3v25.3h-25.3v-25.3H1518.1 M1518.6,683.8h-26.3v26.3h26.3V683.8L1518.6,683.8z"/>
			</g>
		</g>
		<g>
			<rect x="1466.3" y="684.1" class="st2" width="25.8" height="25.8"/>
			<g>
				<path class="st1" d="M1491.8,684.3v25.3h-25.3v-25.3H1491.8 M1492.3,683.8H1466v26.3h26.3V683.8L1492.3,683.8z"/>
			</g>
		</g>
		<g>
			<rect x="1439.9" y="684.1" class="st2" width="25.8" height="25.8"/>
			<g>
				<path class="st1" d="M1465.5,684.3v25.3h-25.3v-25.3H1465.5 M1466,683.8h-26.3v26.3h26.3V683.8L1466,683.8z"/>
			</g>
		</g>
		<g>
			<rect x="1413.6" y="684.1" class="st2" width="25.8" height="25.8"/>
			<g>
				<path class="st1" d="M1439.2,684.3v25.3h-25.3v-25.3H1439.2 M1439.7,683.8h-26.3v26.3h26.3V683.8L1439.7,683.8z"/>
			</g>
		</g>
		<g>
			<rect x="1387.3" y="684.1" class="st2" width="25.8" height="25.8"/>
			<g>
				<path class="st1" d="M1412.9,684.3v25.3h-25.3v-25.3H1412.9 M1413.4,683.8h-26.3v26.3h26.3V683.8L1413.4,683.8z"/>
			</g>
		</g>
		<g>
			<rect x="1363.1" y="684.1" class="st2" width="25.8" height="25.8"/>
			<g>
				<path class="st1" d="M1388.7,684.3v25.3h-25.3v-25.3H1388.7 M1389.2,683.8h-26.3v26.3h26.3V683.8L1389.2,683.8z"/>
			</g>
		</g>
		<g>
			<rect x="1596.8" y="710.4" class="st2" width="25.8" height="25.8"/>
			<g>
				<path class="st1" d="M1622.3,710.6v25.3H1597v-25.3H1622.3 M1622.8,710.1h-26.3v26.3h26.3V710.1L1622.8,710.1z"/>
			</g>
		</g>
		<g>
			<rect x="1571.5" y="710.4" class="st2" width="25.8" height="25.8"/>
			<g>
				<path class="st1" d="M1597.1,710.6v25.3h-25.3v-25.3H1597.1 M1597.6,710.1h-26.3v26.3h26.3V710.1L1597.6,710.1z"/>
			</g>
		</g>
		<g>
			<rect x="1545.2" y="710.4" class="st2" width="25.8" height="25.8"/>
			<g>
				<path class="st1" d="M1570.8,710.6v25.3h-25.3v-25.3H1570.8 M1571.3,710.1H1545v26.3h26.3V710.1L1571.3,710.1z"/>
			</g>
		</g>
		<g>
			<rect x="1518.9" y="710.4" class="st2" width="25.8" height="25.8"/>
			<g>
				<path class="st1" d="M1544.5,710.6v25.3h-25.3v-25.3H1544.5 M1545,710.1h-26.3v26.3h26.3V710.1L1545,710.1z"/>
			</g>
		</g>
		<g>
			<rect x="1492.6" y="710.4" class="st2" width="25.8" height="25.8"/>
			<g>
				<path class="st1" d="M1518.1,710.6v25.3h-25.3v-25.3H1518.1 M1518.6,710.1h-26.3v26.3h26.3V710.1L1518.6,710.1z"/>
			</g>
		</g>
		<g>
			<rect x="1466.3" y="710.4" class="st2" width="25.8" height="25.8"/>
			<g>
				<path class="st1" d="M1491.8,710.6v25.3h-25.3v-25.3H1491.8 M1492.3,710.1H1466v26.3h26.3V710.1L1492.3,710.1z"/>
			</g>
		</g>
		<g>
			<rect x="1439.9" y="710.4" class="st2" width="25.8" height="25.8"/>
			<g>
				<path class="st1" d="M1465.5,710.6v25.3h-25.3v-25.3H1465.5 M1466,710.1h-26.3v26.3h26.3V710.1L1466,710.1z"/>
			</g>
		</g>
		<g>
			<rect x="1413.6" y="710.4" class="st2" width="25.8" height="25.8"/>
			<g>
				<path class="st1" d="M1439.2,710.6v25.3h-25.3v-25.3H1439.2 M1439.7,710.1h-26.3v26.3h26.3V710.1L1439.7,710.1z"/>
			</g>
		</g>
		<g>
			<rect x="1387.3" y="710.4" class="st2" width="25.8" height="25.8"/>
			<g>
				<path class="st1" d="M1412.9,710.6v25.3h-25.3v-25.3H1412.9 M1413.4,710.1h-26.3v26.3h26.3V710.1L1413.4,710.1z"/>
			</g>
		</g>
		<g>
			<rect x="1363.1" y="710.4" class="st2" width="25.8" height="25.8"/>
			<g>
				<path class="st1" d="M1388.7,710.6v25.3h-25.3v-25.3H1388.7 M1389.2,710.1h-26.3v26.3h26.3V710.1L1389.2,710.1z"/>
			</g>
		</g>
		<g>
			<rect x="1596.8" y="736.7" class="st2" width="25.8" height="25.8"/>
			<g>
				<path class="st1" d="M1622.3,736.9v25.3H1597v-25.3H1622.3 M1622.8,736.4h-26.3v26.3h26.3V736.4L1622.8,736.4z"/>
			</g>
		</g>
		<g>
			<rect x="1623.1" y="710.4" class="st2" width="25.8" height="25.8"/>
			<g>
				<path class="st1" d="M1648.7,710.6v25.3h-25.3v-25.3H1648.7 M1649.2,710.1h-26.3v26.3h26.3V710.1L1649.2,710.1z"/>
			</g>
		</g>
		<g>
			<rect x="1623.1" y="736.7" class="st2" width="25.8" height="25.8"/>
			<g>
				<path class="st1" d="M1648.7,736.9v25.3h-25.3v-25.3H1648.7 M1649.2,736.4h-26.3v26.3h26.3V736.4L1649.2,736.4z"/>
			</g>
		</g>
		<g>
			<rect x="1571.5" y="736.7" class="st2" width="25.8" height="25.8"/>
			<g>
				<path class="st1" d="M1597.1,736.9v25.3h-25.3v-25.3H1597.1 M1597.6,736.4h-26.3v26.3h26.3V736.4L1597.6,736.4z"/>
			</g>
		</g>
		<g>
			<rect x="1545.2" y="736.7" class="st2" width="25.8" height="25.8"/>
			<g>
				<path class="st1" d="M1570.8,736.9v25.3h-25.3v-25.3H1570.8 M1571.3,736.4H1545v26.3h26.3V736.4L1571.3,736.4z"/>
			</g>
		</g>
		<g>
			<rect x="1518.9" y="736.7" class="st2" width="25.8" height="25.8"/>
			<g>
				<path class="st1" d="M1544.5,736.9v25.3h-25.3v-25.3H1544.5 M1545,736.4h-26.3v26.3h26.3V736.4L1545,736.4z"/>
			</g>
		</g>
		<g>
			<rect x="1492.6" y="736.7" class="st2" width="25.8" height="25.8"/>
			<g>
				<path class="st1" d="M1518.1,736.9v25.3h-25.3v-25.3H1518.1 M1518.6,736.4h-26.3v26.3h26.3V736.4L1518.6,736.4z"/>
			</g>
		</g>
		<g>
			<rect x="1466.3" y="736.7" class="st2" width="25.8" height="25.8"/>
			<g>
				<path class="st1" d="M1491.8,736.9v25.3h-25.3v-25.3H1491.8 M1492.3,736.4H1466v26.3h26.3V736.4L1492.3,736.4z"/>
			</g>
		</g>
		<g>
			<rect x="1439.9" y="736.7" class="st2" width="25.8" height="25.8"/>
			<g>
				<path class="st1" d="M1465.5,736.9v25.3h-25.3v-25.3H1465.5 M1466,736.4h-26.3v26.3h26.3V736.4L1466,736.4z"/>
			</g>
		</g>
		<g>
			<rect x="1413.6" y="736.7" class="st2" width="25.8" height="25.8"/>
			<g>
				<path class="st1" d="M1439.2,736.9v25.3h-25.3v-25.3H1439.2 M1439.7,736.4h-26.3v26.3h26.3V736.4L1439.7,736.4z"/>
			</g>
		</g>
		<g>
			<rect x="1387.3" y="736.7" class="st2" width="25.8" height="25.8"/>
			<g>
				<path class="st1" d="M1412.9,736.9v25.3h-25.3v-25.3H1412.9 M1413.4,736.4h-26.3v26.3h26.3V736.4L1413.4,736.4z"/>
			</g>
		</g>
		<g>
			<rect x="1363.1" y="736.7" class="st2" width="25.8" height="25.8"/>
			<g>
				<path class="st1" d="M1388.7,736.9v25.3h-25.3v-25.3H1388.7 M1389.2,736.4h-26.3v26.3h26.3V736.4L1389.2,736.4z"/>
			</g>
		</g>
		<g>
			<rect x="1336.8" y="710.4" class="st2" width="25.8" height="25.8"/>
			<g>
				<path class="st1" d="M1362.3,710.6v25.3H1337v-25.3H1362.3 M1362.8,710.1h-26.3v26.3h26.3V710.1L1362.8,710.1z"/>
			</g>
		</g>
		<g>
			<rect x="1336.8" y="736.7" class="st2" width="25.8" height="25.8"/>
			<g>
				<path class="st1" d="M1362.3,736.9v25.3H1337v-25.3H1362.3 M1362.8,736.4h-26.3v26.3h26.3V736.4L1362.8,736.4z"/>
			</g>
		</g>
	</g>
	<g>
		<rect x="1519.1" y="526.4" width="25.3" height="25.3"/>
		<path d="M1544,526.9v24.3h-24.3v-24.3H1544 M1545,525.9h-26.3v26.3h26.3V525.9L1545,525.9z"/>
	</g>
	<g>
		<g>
			<rect x="1466.3" y="499.8" class="st3" width="25.8" height="25.8"/>
			<path class="st1" d="M1491.8,500.1v25.3h-25.3v-25.3H1491.8 M1492.3,499.6H1466v26.3h26.3V499.6L1492.3,499.6z"/>
		</g>
		<g>
			<rect x="1413.6" y="473.5" class="st3" width="25.8" height="25.8"/>
			<path class="st1" d="M1439.2,473.8v25.3h-25.3v-25.3H1439.2 M1439.7,473.3h-26.3v26.3h26.3V473.3L1439.7,473.3z"/>
		</g>
		<g>
			<rect x="1387.3" y="473.5" class="st3" width="25.8" height="25.8"/>
			<path class="st1" d="M1412.9,473.8v25.3h-25.3v-25.3H1412.9 M1413.4,473.3h-26.3v26.3h26.3V473.3L1413.4,473.3z"/>
		</g>
		<g>
			<rect x="1413.6" y="552.5" class="st3" width="25.8" height="25.8"/>
			<path class="st1" d="M1439.2,552.7V578h-25.3v-25.3H1439.2 M1439.7,552.2h-26.3v26.3h26.3V552.2L1439.7,552.2z"/>
		</g>
		<g>
			<rect x="1387.3" y="552.5" class="st3" width="25.8" height="25.8"/>
			<path class="st1" d="M1412.9,552.7V578h-25.3v-25.3H1412.9 M1413.4,552.2h-26.3v26.3h26.3V552.2L1413.4,552.2z"/>
		</g>
		<g>
			<rect x="1361" y="499.8" class="st3" width="25.8" height="25.8"/>
			<path class="st1" d="M1386.6,500.1v25.3h-25.3v-25.3H1386.6 M1387.1,499.6h-26.3v26.3h26.3V499.6L1387.1,499.6z"/>
		</g>
		<g>
			<rect x="1361" y="526.2" class="st3" width="25.8" height="25.8"/>
			<path class="st1" d="M1386.6,526.4v25.3h-25.3v-25.3H1386.6 M1387.1,525.9h-26.3v26.3h26.3V525.9L1387.1,525.9z"/>
		</g>
		<g>
			<rect x="1439.9" y="499.8" class="st3" width="25.8" height="25.8"/>
			<path class="st1" d="M1465.5,500.1v25.3h-25.3v-25.3H1465.5 M1466,499.6h-26.3v26.3h26.3V499.6L1466,499.6z"/>
		</g>
		<g>
			<rect x="1439.9" y="526.2" class="st3" width="25.8" height="25.8"/>
			<path class="st1" d="M1465.5,526.4v25.3h-25.3v-25.3H1465.5 M1466,525.9h-26.3v26.3h26.3V525.9L1466,525.9z"/>
		</g>
		<g>
			<rect x="1545.2" y="473.5" class="st3" width="25.8" height="25.8"/>
			<path class="st1" d="M1570.8,473.8v25.3h-25.3v-25.3H1570.8 M1571.3,473.3H1545v26.3h26.3V473.3L1571.3,473.3z"/>
		</g>
		<g>
			<rect x="1518.9" y="473.5" class="st3" width="25.8" height="25.8"/>
			<path class="st1" d="M1544.5,473.8v25.3h-25.3v-25.3H1544.5 M1545,473.3h-26.3v26.3h26.3V473.3L1545,473.3z"/>
		</g>
		<g>
			<rect x="1545.2" y="552.5" class="st3" width="25.8" height="25.8"/>
			<path class="st1" d="M1570.8,552.7V578h-25.3v-25.3H1570.8 M1571.3,552.2H1545v26.3h26.3V552.2L1571.3,552.2z"/>
		</g>
		<g>
			<rect x="1518.9" y="552.5" class="st3" width="25.8" height="25.8"/>
			<path class="st1" d="M1544.5,552.7V578h-25.3v-25.3H1544.5 M1545,552.2h-26.3v26.3h26.3V552.2L1545,552.2z"/>
		</g>
		<g>
			<rect x="1492.6" y="499.8" class="st3" width="25.8" height="25.8"/>
			<path class="st1" d="M1518.1,500.1v25.3h-25.3v-25.3H1518.1 M1518.6,499.6h-26.3v26.3h26.3V499.6L1518.6,499.6z"/>
		</g>
		<g>
			<rect x="1492.6" y="526.2" class="st3" width="25.8" height="25.8"/>
			<path class="st1" d="M1518.1,526.4v25.3h-25.3v-25.3H1518.1 M1518.6,525.9h-26.3v26.3h26.3V525.9L1518.6,525.9z"/>
		</g>
		<g>
			<rect x="1571.5" y="499.8" class="st3" width="25.8" height="25.8"/>
			<path class="st1" d="M1597.1,500.1v25.3h-25.3v-25.3H1597.1 M1597.6,499.6h-26.3v26.3h26.3V499.6L1597.6,499.6z"/>
		</g>
		<g>
			<rect x="1571.5" y="526.2" class="st3" width="25.8" height="25.8"/>
			<path class="st1" d="M1597.1,526.4v25.3h-25.3v-25.3H1597.1 M1597.6,525.9h-26.3v26.3h26.3V525.9L1597.6,525.9z"/>
		</g>
	</g>
	<g>
		<path class="st3" d="M1439.9,604.6c0.1-14.2,11.6-25.7,25.8-25.8v25.8H1439.9z"/>
		<g>
			<path class="st1" d="M1465.5,579v25.3h-25.3C1440.5,590.5,1451.7,579.3,1465.5,579 M1466,578.5c-14.5,0-26.3,11.8-26.3,26.3h26.3
				V578.5L1466,578.5z"/>
		</g>
	</g>
	<g>
		<g>
			<rect x="1334.7" y="473.5" class="st4" width="25.8" height="25.8"/>
			<g>
				<path class="st1" d="M1360.2,473.8v25.3h-25.3v-25.3H1360.2 M1360.7,473.3h-26.3v26.3h26.3V473.3L1360.7,473.3z"/>
			</g>
		</g>
		<g>
			<rect x="1334.7" y="447.2" class="st4" width="25.8" height="25.8"/>
			<g>
				<path class="st1" d="M1360.2,447.5v25.3h-25.3v-25.3H1360.2 M1360.7,447h-26.3v26.3h26.3V447L1360.7,447z"/>
			</g>
		</g>
		<g>
			<rect x="1334.7" y="394.6" class="st4" width="25.8" height="25.8"/>
			<g>
				<path class="st1" d="M1360.2,394.8v25.3h-25.3v-25.3H1360.2 M1360.7,394.3h-26.3v26.3h26.3V394.3L1360.7,394.3z"/>
			</g>
		</g>
		<g>
			<rect x="1361" y="420.9" class="st4" width="25.8" height="25.8"/>
			<g>
				<path class="st1" d="M1386.6,421.1v25.3h-25.3v-25.3H1386.6 M1387.1,420.6h-26.3V447h26.3V420.6L1387.1,420.6z"/>
			</g>
		</g>
		<g>
			<rect x="1361" y="394.6" class="st4" width="25.8" height="25.8"/>
			<g>
				<path class="st1" d="M1386.6,394.8v25.3h-25.3v-25.3H1386.6 M1387.1,394.3h-26.3v26.3h26.3V394.3L1387.1,394.3z"/>
			</g>
		</g>
		<g>
			<rect x="1387.3" y="420.9" class="st4" width="25.8" height="25.8"/>
			<g>
				<path class="st1" d="M1412.9,421.1v25.3h-25.3v-25.3H1412.9 M1413.4,420.6h-26.3V447h26.3V420.6L1413.4,420.6z"/>
			</g>
		</g>
		<g>
			<rect x="1413.6" y="394.6" class="st4" width="25.8" height="25.8"/>
			<g>
				<path class="st1" d="M1439.2,394.8v25.3h-25.3v-25.3H1439.2 M1439.7,394.3h-26.3v26.3h26.3V394.3L1439.7,394.3z"/>
			</g>
		</g>
		<g>
			<rect x="1439.9" y="394.6" class="st4" width="25.8" height="25.8"/>
			<g>
				<path class="st1" d="M1465.5,394.8v25.3h-25.3v-25.3H1465.5 M1466,394.3h-26.3v26.3h26.3V394.3L1466,394.3z"/>
			</g>
		</g>
		<g>
			<rect x="1387.3" y="394.6" class="st4" width="25.8" height="25.8"/>
			<g>
				<path class="st1" d="M1412.9,394.8v25.3h-25.3v-25.3H1412.9 M1413.4,394.3h-26.3v26.3h26.3V394.3L1413.4,394.3z"/>
			</g>
		</g>
		<g>
			<rect x="1308.4" y="526.2" class="st4" width="25.8" height="25.8"/>
			<g>
				<path class="st1" d="M1333.9,526.4v25.3h-25.3v-25.3H1333.9 M1334.4,525.9h-26.3v26.3h26.3V525.9L1334.4,525.9z"/>
			</g>
		</g>
		<g>
			<rect x="1282" y="552.5" class="st4" width="25.8" height="25.8"/>
			<g>
				<path class="st1" d="M1307.6,552.7V578h-25.3v-25.3H1307.6 M1308.1,552.2h-26.3v26.3h26.3V552.2L1308.1,552.2z"/>
			</g>
		</g>
		<g>
			<rect x="1282" y="526.2" class="st4" width="25.8" height="25.8"/>
			<g>
				<path class="st1" d="M1307.6,526.4v25.3h-25.3v-25.3H1307.6 M1308.1,525.9h-26.3v26.3h26.3V525.9L1308.1,525.9z"/>
			</g>
		</g>
		<g>
			<rect x="1282" y="473.5" class="st4" width="25.8" height="25.8"/>
			<g>
				<path class="st1" d="M1307.6,473.8v25.3h-25.3v-25.3H1307.6 M1308.1,473.3h-26.3v26.3h26.3V473.3L1308.1,473.3z"/>
			</g>
		</g>
		<g>
			<rect x="1282" y="499.8" class="st4" width="25.8" height="25.8"/>
			<g>
				<path class="st1" d="M1307.6,500.1v25.3h-25.3v-25.3H1307.6 M1308.1,499.6h-26.3v26.3h26.3V499.6L1308.1,499.6z"/>
			</g>
		</g>
		<g>
			<rect x="1308.4" y="499.8" class="st4" width="25.8" height="25.8"/>
			<g>
				<path class="st1" d="M1333.9,500.1v25.3h-25.3v-25.3H1333.9 M1334.4,499.6h-26.3v26.3h26.3V499.6L1334.4,499.6z"/>
			</g>
		</g>
		<g>
			<rect x="1308.4" y="473.5" class="st4" width="25.8" height="25.8"/>
			<g>
				<path class="st1" d="M1333.9,473.8v25.3h-25.3v-25.3H1333.9 M1334.4,473.3h-26.3v26.3h26.3V473.3L1334.4,473.3z"/>
			</g>
		</g>
		<g>
			<rect x="1308.4" y="447.2" class="st4" width="25.8" height="25.8"/>
			<g>
				<path class="st1" d="M1333.9,447.5v25.3h-25.3v-25.3H1333.9 M1334.4,447h-26.3v26.3h26.3V447L1334.4,447z"/>
			</g>
		</g>
		<g>
			<rect x="1334.7" y="420.9" class="st4" width="25.8" height="25.8"/>
			<g>
				<path class="st1" d="M1360.2,421.1v25.3h-25.3v-25.3H1360.2 M1360.7,420.6h-26.3V447h26.3V420.6L1360.7,420.6z"/>
			</g>
		</g>
		<g>
			<rect x="1308.4" y="420.9" class="st4" width="25.8" height="25.8"/>
			<g>
				<path class="st1" d="M1333.9,421.1v25.3h-25.3v-25.3H1333.9 M1334.4,420.6h-26.3V447h26.3V420.6L1334.4,420.6z"/>
			</g>
		</g>
		<g>
			<rect x="1282" y="578.8" class="st4" width="25.8" height="25.8"/>
			<g>
				<path class="st1" d="M1307.6,579v25.3h-25.3V579H1307.6 M1308.1,578.5h-26.3v26.3h26.3V578.5L1308.1,578.5z"/>
			</g>
		</g>
		<g>
			<rect x="1282" y="605.1" class="st4" width="25.8" height="25.8"/>
			<g>
				<path class="st1" d="M1307.6,605.4v25.3h-25.3v-25.3H1307.6 M1308.1,604.9h-26.3v26.3h26.3V604.9L1308.1,604.9z"/>
			</g>
		</g>
		<g>
			<rect x="1255.7" y="578.8" class="st4" width="25.8" height="25.8"/>
			<g>
				<path class="st1" d="M1281.3,579v25.3H1256V579H1281.3 M1281.8,578.5h-26.3v26.3h26.3V578.5L1281.8,578.5z"/>
			</g>
		</g>
		<g>
			<rect x="1255.7" y="605.1" class="st4" width="25.8" height="25.8"/>
			<g>
				<path class="st1" d="M1281.3,605.4v25.3H1256v-25.3H1281.3 M1281.8,604.9h-26.3v26.3h26.3V604.9L1281.8,604.9z"/>
			</g>
		</g>
		<g>
			<rect x="1282" y="631.4" class="st4" width="25.8" height="25.8"/>
			<g>
				<path class="st1" d="M1307.6,631.7V657h-25.3v-25.3H1307.6 M1308.1,631.2h-26.3v26.3h26.3V631.2L1308.1,631.2z"/>
			</g>
		</g>
		<g>
			<rect x="1308.4" y="631.4" class="st4" width="25.8" height="25.8"/>
			<g>
				<path class="st1" d="M1333.9,631.7V657h-25.3v-25.3H1333.9 M1334.4,631.2h-26.3v26.3h26.3V631.2L1334.4,631.2z"/>
			</g>
		</g>
		<g>
			<rect x="1361" y="447.2" class="st4" width="25.8" height="25.8"/>
			<g>
				<path class="st1" d="M1386.6,447.5v25.3h-25.3v-25.3H1386.6 M1387.1,447h-26.3v26.3h26.3V447L1387.1,447z"/>
			</g>
		</g>
		<g>
			<rect x="1413.6" y="420.9" class="st4" width="25.8" height="25.8"/>
			<g>
				<path class="st1" d="M1439.2,421.1v25.3h-25.3v-25.3H1439.2 M1439.7,420.6h-26.3V447h26.3V420.6L1439.7,420.6z"/>
			</g>
		</g>
		<g>
			<rect x="1466.3" y="394.6" class="st4" width="25.8" height="25.8"/>
			<g>
				<path class="st1" d="M1491.8,394.8v25.3h-25.3v-25.3H1491.8 M1492.3,394.3H1466v26.3h26.3V394.3L1492.3,394.3z"/>
			</g>
		</g>
		<g>
			<rect x="1492.6" y="368.3" class="st4" width="25.8" height="25.8"/>
			<g>
				<path class="st1" d="M1518.1,368.5v25.3h-25.3v-25.3H1518.1 M1518.6,368h-26.3v26.3h26.3V368L1518.6,368z"/>
			</g>
		</g>
		<g>
			<rect x="1518.9" y="368.3" class="st4" width="25.8" height="25.8"/>
			<g>
				<path class="st1" d="M1544.5,368.5v25.3h-25.3v-25.3H1544.5 M1545,368h-26.3v26.3h26.3V368L1545,368z"/>
			</g>
		</g>
		<g>
			<rect x="1545.2" y="368.3" class="st4" width="25.8" height="25.8"/>
			<g>
				<path class="st1" d="M1570.8,368.5v25.3h-25.3v-25.3H1570.8 M1571.3,368H1545v26.3h26.3V368L1571.3,368z"/>
			</g>
		</g>
		<g>
			<rect x="1545.2" y="394.6" class="st4" width="25.8" height="25.8"/>
			<g>
				<path class="st1" d="M1570.8,394.8v25.3h-25.3v-25.3H1570.8 M1571.3,394.3H1545v26.3h26.3V394.3L1571.3,394.3z"/>
			</g>
		</g>
		<g>
			<rect x="1571.5" y="394.6" class="st4" width="25.8" height="25.8"/>
			<g>
				<path class="st1" d="M1597.1,394.8v25.3h-25.3v-25.3H1597.1 M1597.6,394.3h-26.3v26.3h26.3V394.3L1597.6,394.3z"/>
			</g>
		</g>
		<g>
			<rect x="1597.8" y="394.6" class="st4" width="25.8" height="25.8"/>
			<g>
				<path class="st1" d="M1623.4,394.8v25.3h-25.3v-25.3H1623.4 M1623.9,394.3h-26.3v26.3h26.3V394.3L1623.9,394.3z"/>
			</g>
		</g>
		<g>
			<rect x="1624.2" y="394.6" class="st4" width="25.8" height="25.8"/>
			<g>
				<path class="st1" d="M1649.7,394.8v25.3h-25.3v-25.3H1649.7 M1650.2,394.3h-26.3v26.3h26.3V394.3L1650.2,394.3z"/>
			</g>
		</g>
		<g>
			<rect x="1571.5" y="420.9" class="st4" width="25.8" height="25.8"/>
			<g>
				<path class="st1" d="M1597.1,421.1v25.3h-25.3v-25.3H1597.1 M1597.6,420.6h-26.3V447h26.3V420.6L1597.6,420.6z"/>
			</g>
		</g>
		<g>
			<rect x="1439.9" y="368.3" class="st4" width="25.8" height="25.8"/>
			<g>
				<path class="st1" d="M1465.5,368.5v25.3h-25.3v-25.3H1465.5 M1466,368h-26.3v26.3h26.3V368L1466,368z"/>
			</g>
		</g>
		<g>
			<rect x="1466.3" y="368.3" class="st4" width="25.8" height="25.8"/>
			<g>
				<path class="st1" d="M1491.8,368.5v25.3h-25.3v-25.3H1491.8 M1492.3,368H1466v26.3h26.3V368L1492.3,368z"/>
			</g>
		</g>
		<g>
			<rect x="1387.3" y="368.3" class="st4" width="25.8" height="25.8"/>
			<g>
				<path class="st1" d="M1412.9,368.5v25.3h-25.3v-25.3H1412.9 M1413.4,368h-26.3v26.3h26.3V368L1413.4,368z"/>
			</g>
		</g>
		<g>
			<rect x="1413.6" y="368.3" class="st4" width="25.8" height="25.8"/>
			<g>
				<path class="st1" d="M1439.2,368.5v25.3h-25.3v-25.3H1439.2 M1439.7,368h-26.3v26.3h26.3V368L1439.7,368z"/>
			</g>
		</g>
		<g>
			<rect x="1413.6" y="342" class="st4" width="25.8" height="25.8"/>
			<g>
				<path class="st1" d="M1439.2,342.2v25.3h-25.3v-25.3H1439.2 M1439.7,341.7h-26.3V368h26.3V341.7L1439.7,341.7z"/>
			</g>
		</g>
		<g>
			<rect x="1439.9" y="342" class="st4" width="25.8" height="25.8"/>
			<g>
				<path class="st1" d="M1465.5,342.2v25.3h-25.3v-25.3H1465.5 M1466,341.7h-26.3V368h26.3V341.7L1466,341.7z"/>
			</g>
		</g>
		<g>
			<rect x="1545.2" y="420.9" class="st4" width="25.8" height="25.8"/>
			<g>
				<path class="st1" d="M1570.8,421.1v25.3h-25.3v-25.3H1570.8 M1571.3,420.6H1545V447h26.3V420.6L1571.3,420.6z"/>
			</g>
		</g>
		<g>
			<rect x="1571.5" y="447.2" class="st4" width="25.8" height="25.8"/>
			<g>
				<path class="st1" d="M1597.1,447.5v25.3h-25.3v-25.3H1597.1 M1597.6,447h-26.3v26.3h26.3V447L1597.6,447z"/>
			</g>
		</g>
		<g>
			<rect x="1597.8" y="420.9" class="st4" width="25.8" height="25.8"/>
			<g>
				<path class="st1" d="M1623.4,421.1v25.3h-25.3v-25.3H1623.4 M1623.9,420.6h-26.3V447h26.3V420.6L1623.9,420.6z"/>
			</g>
		</g>
		<g>
			<rect x="1624.2" y="420.9" class="st4" width="25.8" height="25.8"/>
			<g>
				<path class="st1" d="M1649.7,421.1v25.3h-25.3v-25.3H1649.7 M1650.2,420.6h-26.3V447h26.3V420.6L1650.2,420.6z"/>
			</g>
		</g>
		<g>
			<rect x="1597.8" y="447.2" class="st4" width="25.8" height="25.8"/>
			<g>
				<path class="st1" d="M1623.4,447.5v25.3h-25.3v-25.3H1623.4 M1623.9,447h-26.3v26.3h26.3V447L1623.9,447z"/>
			</g>
		</g>
		<g>
			<rect x="1597.8" y="473.5" class="st4" width="25.8" height="25.8"/>
			<g>
				<path class="st1" d="M1623.4,473.8v25.3h-25.3v-25.3H1623.4 M1623.9,473.3h-26.3v26.3h26.3V473.3L1623.9,473.3z"/>
			</g>
		</g>
		<g>
			<rect x="1624.2" y="447.2" class="st4" width="25.8" height="25.8"/>
			<g>
				<path class="st1" d="M1649.7,447.5v25.3h-25.3v-25.3H1649.7 M1650.2,447h-26.3v26.3h26.3V447L1650.2,447z"/>
			</g>
		</g>
		<g>
			<rect x="1650.5" y="447.2" class="st4" width="25.8" height="25.8"/>
			<g>
				<path class="st1" d="M1676,447.5v25.3h-25.3v-25.3H1676 M1676.5,447h-26.3v26.3h26.3V447L1676.5,447z"/>
			</g>
		</g>
		<g>
			<rect x="1650.5" y="473.5" class="st4" width="25.8" height="25.8"/>
			<g>
				<path class="st1" d="M1676,473.8v25.3h-25.3v-25.3H1676 M1676.5,473.3h-26.3v26.3h26.3V473.3L1676.5,473.3z"/>
			</g>
		</g>
		<g>
			<rect x="1676.8" y="499.8" class="st4" width="25.8" height="25.8"/>
			<g>
				<path class="st1" d="M1702.3,500.1v25.3H1677v-25.3H1702.3 M1702.8,499.6h-26.3v26.3h26.3V499.6L1702.8,499.6z"/>
			</g>
		</g>
		<g>
			<rect x="1676.8" y="526.2" class="st4" width="25.8" height="25.8"/>
			<g>
				<path class="st1" d="M1702.3,526.4v25.3H1677v-25.3H1702.3 M1702.8,525.9h-26.3v26.3h26.3V525.9L1702.8,525.9z"/>
			</g>
		</g>
		<g>
			<rect x="1703.1" y="552.5" class="st4" width="25.8" height="25.8"/>
			<g>
				<path class="st1" d="M1728.7,552.7V578h-25.3v-25.3H1728.7 M1729.2,552.2h-26.3v26.3h26.3V552.2L1729.2,552.2z"/>
			</g>
		</g>
		<g>
			<rect x="1676.8" y="552.5" class="st4" width="25.8" height="25.8"/>
			<g>
				<path class="st1" d="M1702.3,552.7V578H1677v-25.3H1702.3 M1702.8,552.2h-26.3v26.3h26.3V552.2L1702.8,552.2z"/>
			</g>
		</g>
		<g>
			<rect x="1676.8" y="578.8" class="st4" width="25.8" height="25.8"/>
			<g>
				<path class="st1" d="M1702.3,579v25.3H1677V579H1702.3 M1702.8,578.5h-26.3v26.3h26.3V578.5L1702.8,578.5z"/>
			</g>
		</g>
		<g>
			<rect x="1624.2" y="473.5" class="st4" width="25.8" height="25.8"/>
			<g>
				<path class="st1" d="M1649.7,473.8v25.3h-25.3v-25.3H1649.7 M1650.2,473.3h-26.3v26.3h26.3V473.3L1650.2,473.3z"/>
			</g>
		</g>
		<g>
			<rect x="1650.5" y="552.5" class="st4" width="25.8" height="25.8"/>
			<g>
				<path class="st1" d="M1676,552.7V578h-25.3v-25.3H1676 M1676.5,552.2h-26.3v26.3h26.3V552.2L1676.5,552.2z"/>
			</g>
		</g>
		<g>
			<rect x="1650.5" y="578.8" class="st4" width="25.8" height="25.8"/>
			<g>
				<path class="st1" d="M1676,579v25.3h-25.3V579H1676 M1676.5,578.5h-26.3v26.3h26.3V578.5L1676.5,578.5z"/>
			</g>
		</g>
		<g>
			<rect x="1676.8" y="605.1" class="st4" width="25.8" height="25.8"/>
			<g>
				<path class="st1" d="M1702.3,605.4v25.3H1677v-25.3H1702.3 M1702.8,604.9h-26.3v26.3h26.3V604.9L1702.8,604.9z"/>
			</g>
		</g>
		<g>
			<rect x="1676.8" y="631.4" class="st4" width="25.8" height="25.8"/>
			<g>
				<path class="st1" d="M1702.3,631.7V657H1677v-25.3H1702.3 M1702.8,631.2h-26.3v26.3h26.3V631.2L1702.8,631.2z"/>
			</g>
		</g>
		<g>
			<rect x="1650.5" y="605.1" class="st4" width="25.8" height="25.8"/>
			<g>
				<path class="st1" d="M1676,605.4v25.3h-25.3v-25.3H1676 M1676.5,604.9h-26.3v26.3h26.3V604.9L1676.5,604.9z"/>
			</g>
		</g>
		<g>
			<rect x="1650.5" y="631.4" class="st4" width="25.8" height="25.8"/>
			<g>
				<path class="st1" d="M1676,631.7V657h-25.3v-25.3H1676 M1676.5,631.2h-26.3v26.3h26.3V631.2L1676.5,631.2z"/>
			</g>
		</g>
		<g>
			<rect x="1624.2" y="631.4" class="st4" width="25.8" height="25.8"/>
			<g>
				<path class="st1" d="M1649.7,631.7V657h-25.3v-25.3H1649.7 M1650.2,631.2h-26.3v26.3h26.3V631.2L1650.2,631.2z"/>
			</g>
		</g>
		<g>
			<rect x="1650.5" y="499.8" class="st4" width="25.8" height="25.8"/>
			<g>
				<path class="st1" d="M1676,500.1v25.3h-25.3v-25.3H1676 M1676.5,499.6h-26.3v26.3h26.3V499.6L1676.5,499.6z"/>
			</g>
		</g>
		<g>
			<rect x="1650.5" y="526.2" class="st4" width="25.8" height="25.8"/>
			<g>
				<path class="st1" d="M1676,526.4v25.3h-25.3v-25.3H1676 M1676.5,525.9h-26.3v26.3h26.3V525.9L1676.5,525.9z"/>
			</g>
		</g>
		<g>
			<rect x="1624.2" y="499.8" class="st4" width="25.8" height="25.8"/>
			<g>
				<path class="st1" d="M1649.7,500.1v25.3h-25.3v-25.3H1649.7 M1650.2,499.6h-26.3v26.3h26.3V499.6L1650.2,499.6z"/>
			</g>
		</g>
		<g>
			<rect x="1597.8" y="499.8" class="st4" width="25.8" height="25.8"/>
			<g>
				<path class="st1" d="M1623.4,500.1v25.3h-25.3v-25.3H1623.4 M1623.9,499.6h-26.3v26.3h26.3V499.6L1623.9,499.6z"/>
			</g>
		</g>
		<g>
			<rect x="1624.2" y="526.2" class="st4" width="25.8" height="25.8"/>
			<g>
				<path class="st1" d="M1649.7,526.4v25.3h-25.3v-25.3H1649.7 M1650.2,525.9h-26.3v26.3h26.3V525.9L1650.2,525.9z"/>
			</g>
		</g>
		<g>
			<path class="st4" d="M1229.4,604.6c0.1-14.2,11.6-25.7,25.8-25.8v25.8H1229.4z"/>
			<g>
				<path class="st1" d="M1255,579v25.3h-25.3C1229.9,590.5,1241.1,579.3,1255,579 M1255.5,578.5c-14.5,0-26.3,11.8-26.3,26.3h26.3
					V578.5L1255.5,578.5z"/>
			</g>
		</g>
		<g>
			<path class="st4" d="M1255.7,578.3c0.1-14.2,11.6-25.7,25.8-25.8v25.8H1255.7z"/>
			<g>
				<path class="st1" d="M1281.3,552.7V578H1256C1256.2,564.2,1267.5,553,1281.3,552.7 M1281.8,552.2c-14.5,0-26.3,11.8-26.3,26.3
					h26.3V552.2L1281.8,552.2z"/>
			</g>
		</g>
		<g>
			<path class="st4" d="M1282,473c0.1-14.2,11.6-25.7,25.8-25.8V473H1282z"/>
			<g>
				<path class="st1" d="M1307.6,447.5v25.3l-25.3,0C1282.6,458.9,1293.8,447.7,1307.6,447.5 M1308.1,447
					c-14.5,0-26.3,11.8-26.3,26.3v0h26.3V447L1308.1,447z"/>
			</g>
		</g>
		<g>
			<path class="st4" d="M1255.7,525.7c0.1-14.2,11.6-25.7,25.8-25.8v25.8H1255.7z"/>
			<g>
				<path class="st1" d="M1281.3,500.1v25.3l-25.3,0C1256.2,511.6,1267.5,500.4,1281.3,500.1 M1281.8,499.6
					c-14.5,0-26.3,11.8-26.3,26.3v0h26.3V499.6L1281.8,499.6z"/>
			</g>
		</g>
		<g>
			<path class="st4" d="M1308.4,420.4c0.1-14.2,11.6-25.7,25.8-25.8v25.8H1308.4z"/>
			<g>
				<path class="st1" d="M1333.9,394.8v25.3l-25.3,0C1308.9,406.3,1320.1,395.1,1333.9,394.8 M1334.4,394.3
					c-14.5,0-26.3,11.8-26.3,26.3v0h26.3V394.3L1334.4,394.3z"/>
			</g>
		</g>
		<g>
			<path class="st4" d="M1361,394.1c0.1-14.2,11.6-25.7,25.8-25.8v25.8H1361z"/>
			<g>
				<path class="st1" d="M1386.6,368.5v25.3h-25.3C1361.5,380,1372.7,368.8,1386.6,368.5 M1387.1,368c-14.5,0-26.3,11.8-26.3,26.3
					h26.3V368L1387.1,368z"/>
			</g>
		</g>
		<g>
			<path class="st4" d="M1387.3,367.8c0.1-14.2,11.6-25.7,25.8-25.8l0,25.8H1387.3z"/>
			<g>
				<path class="st1" d="M1412.9,342.2v25.3l-25.3,0C1387.8,353.7,1399,342.5,1412.9,342.2 M1413.4,341.7
					c-14.5,0-26.3,11.8-26.3,26.3v0h26.3V341.7L1413.4,341.7z"/>
			</g>
		</g>
		<g>
			<path class="st4" d="M1492.6,367.8c0.1-14.2,11.6-25.7,25.8-25.8v25.8H1492.6z"/>
			<g>
				<path class="st1" d="M1518.1,342.2v25.3l-25.3,0C1493.1,353.7,1504.3,342.5,1518.1,342.2 M1518.6,341.7
					c-14.5,0-26.3,11.8-26.3,26.3v0h26.3V341.7L1518.6,341.7z"/>
			</g>
		</g>
		<g>
			<path class="st4" d="M1597.8,394.1c0.1-14.2,11.6-25.7,25.8-25.8v25.8H1597.8z"/>
			<g>
				<path class="st1" d="M1623.4,368.5v25.3h-25.3C1598.4,380,1609.6,368.8,1623.4,368.5 M1623.9,368c-14.5,0-26.3,11.8-26.3,26.3
					h26.3V368L1623.9,368z"/>
			</g>
		</g>
		<g>
			<path class="st4" d="M1518.9,367.8V342c14.2,0.1,25.7,11.6,25.8,25.8H1518.9z"/>
			<g>
				<path class="st1" d="M1519.1,342.2c13.8,0.3,25,11.5,25.3,25.3h-25.3V342.2 M1518.6,341.7V368h26.3v0
					C1545,353.5,1533.2,341.7,1518.6,341.7L1518.6,341.7z"/>
			</g>
		</g>
		<g>
			<path class="st4" d="M1466.3,367.8V342c14.2,0.1,25.7,11.6,25.8,25.8H1466.3z"/>
			<g>
				<path class="st1" d="M1466.5,342.2c13.8,0.3,25,11.5,25.3,25.3h-25.3V342.2 M1466,341.7V368h26.3v0
					C1492.3,353.5,1480.5,341.7,1466,341.7L1466,341.7z"/>
			</g>
		</g>
		<g>
			<path class="st4" d="M1571.5,394.1v-25.8c14.2,0.1,25.7,11.6,25.8,25.8H1571.5z"/>
			<g>
				<path class="st1" d="M1571.8,368.5c13.8,0.3,25,11.5,25.3,25.3h-25.3V368.5 M1571.3,368v26.3h26.3
					C1597.6,379.8,1585.8,368,1571.3,368L1571.3,368z"/>
			</g>
		</g>
		<g>
			<path class="st4" d="M1650.5,446.7v-25.8c14.2,0.1,25.7,11.6,25.8,25.8H1650.5z"/>
			<g>
				<path class="st1" d="M1650.7,421.2c13.8,0.3,25,11.5,25.3,25.3h-25.3V421.2 M1650.2,420.6V447h26.3v0
					C1676.5,432.4,1664.8,420.6,1650.2,420.6L1650.2,420.6z"/>
			</g>
		</g>
		<g>
			<path class="st4" d="M1676.8,499.3v-25.8c14.2,0.1,25.7,11.6,25.8,25.8H1676.8z"/>
			<g>
				<path class="st1" d="M1677,473.8c13.8,0.3,25,11.5,25.3,25.3H1677V473.8 M1676.5,473.3v26.3h26.3v0
					C1702.8,485.1,1691.1,473.3,1676.5,473.3L1676.5,473.3z"/>
			</g>
		</g>
		<g>
			<path class="st4" d="M1703.1,552v-25.8c14.2,0.1,25.7,11.6,25.8,25.8H1703.1z"/>
			<g>
				<path class="st1" d="M1703.3,526.4c13.8,0.3,25,11.5,25.3,25.3h-25.3V526.4 M1702.8,525.9v26.3h26.3v0
					C1729.2,537.7,1717.4,525.9,1702.8,525.9L1702.8,525.9z"/>
			</g>
		</g>
		<g>
			<path class="st4" d="M1703.1,630.9v-25.8c14.2,0.1,25.7,11.6,25.8,25.8H1703.1z"/>
			<g>
				<path class="st1" d="M1703.3,605.4c13.8,0.3,25,11.5,25.3,25.3h-25.3V605.4 M1702.8,604.9v26.3h26.3
					C1729.2,616.6,1717.4,604.9,1702.8,604.9L1702.8,604.9z"/>
			</g>
		</g>
		<g>
			<path class="st4" d="M1624.2,394.1v-25.8c14.2,0.1,25.7,11.6,25.8,25.8H1624.2z"/>
			<g>
				<path class="st1" d="M1624.4,368.5c13.8,0.3,25,11.5,25.3,25.3h-25.3V368.5 M1623.9,368v26.3h26.3
					C1650.2,379.8,1638.4,368,1623.9,368L1623.9,368z"/>
			</g>
		</g>
		<g>
			<path class="st4" d="M1703.1,631.4h25.8c-0.1,14.2-11.6,25.7-25.8,25.8V631.4z"/>
			<g>
				<path class="st1" d="M1728.7,631.7c-0.3,13.8-11.5,25-25.3,25.3v-25.3H1728.7 M1729.2,631.2h-26.3v26.3
					C1717.4,657.5,1729.2,645.7,1729.2,631.2L1729.2,631.2L1729.2,631.2z"/>
			</g>
		</g>
		<g>
			<path class="st4" d="M1703.1,578.8h25.8c-0.1,14.2-11.6,25.7-25.8,25.8V578.8z"/>
			<g>
				<path class="st1" d="M1728.7,579c-0.3,13.8-11.5,25-25.3,25.3V579H1728.7 M1729.2,578.5h-26.3v26.3
					C1717.4,604.9,1729.2,593.1,1729.2,578.5L1729.2,578.5L1729.2,578.5z"/>
			</g>
		</g>
		<g>
			<path class="st4" d="M1387.3,447.2h25.8c-0.1,14.2-11.6,25.7-25.8,25.8V447.2z"/>
			<g>
				<path class="st1" d="M1412.9,447.5c-0.3,13.8-11.5,25-25.3,25.3v-25.3H1412.9 M1413.4,447h-26.3v26.3
					C1401.6,473.3,1413.4,461.5,1413.4,447L1413.4,447L1413.4,447z"/>
			</g>
		</g>
		<g>
			<path class="st4" d="M1334.7,499.8h25.8c-0.1,14.2-11.6,25.7-25.8,25.8V499.8z"/>
			<g>
				<path class="st1" d="M1360.2,500.1c-0.3,13.8-11.5,25-25.3,25.3v-25.3H1360.2 M1360.7,499.6h-26.3v26.3h0
					C1349,525.9,1360.7,514.1,1360.7,499.6L1360.7,499.6z"/>
			</g>
		</g>
		<g>
			<path class="st4" d="M1308.4,552.5h25.8c-0.1,14.2-11.6,25.7-25.8,25.8V552.5z"/>
			<g>
				<path class="st1" d="M1333.9,552.7c-0.3,13.8-11.5,25-25.3,25.3v-25.3H1333.9 M1334.4,552.2h-26.3v26.3h0
					C1322.6,578.5,1334.4,566.8,1334.4,552.2L1334.4,552.2z"/>
			</g>
		</g>
		<g>
			<path class="st4" d="M1439.9,420.9h25.8c-0.1,14.2-11.6,25.7-25.8,25.8V420.9z"/>
			<g>
				<path class="st1" d="M1465.5,421.1c-0.3,13.8-11.5,25-25.3,25.3v-25.3H1465.5 M1466,420.6h-26.3V447
					C1454.2,447,1466,435.2,1466,420.6L1466,420.6L1466,420.6z"/>
			</g>
		</g>
		<g>
			<path class="st4" d="M1492.6,394.6h25.8c-0.1,14.2-11.6,25.7-25.8,25.8V394.6z"/>
			<g>
				<path class="st1" d="M1518.1,394.8c-0.3,13.8-11.5,25-25.3,25.3v-25.3H1518.1 M1518.6,394.3h-26.3v26.3
					C1506.9,420.6,1518.6,408.9,1518.6,394.3L1518.6,394.3L1518.6,394.3z"/>
			</g>
		</g>
		<g>
			<path class="st4" d="M1544.7,420.4c-14.2-0.1-25.7-11.6-25.8-25.8h25.8V420.4z"/>
			<g>
				<path class="st1" d="M1544.5,394.8v25.3c-13.8-0.3-25-11.5-25.3-25.3H1544.5 M1545,394.3h-26.3v0c0,14.5,11.8,26.3,26.3,26.3
					V394.3L1545,394.3z"/>
			</g>
		</g>
		<g>
			<path class="st4" d="M1571,473c-14.2-0.1-25.7-11.6-25.8-25.8h25.8V473z"/>
			<g>
				<path class="st1" d="M1570.8,447.5v25.3c-13.8-0.3-25-11.5-25.3-25.3H1570.8 M1571.3,447H1545v0c0,14.5,11.8,26.3,26.3,26.3V447
					L1571.3,447z"/>
			</g>
		</g>
		<g>
			<path class="st4" d="M1597.3,499.3c-14.2-0.1-25.7-11.6-25.8-25.8h25.8V499.3z"/>
			<g>
				<path class="st1" d="M1597.1,473.8v25.3c-13.8-0.3-25-11.5-25.3-25.3H1597.1 M1597.6,473.3h-26.3v0c0,14.5,11.8,26.3,26.3,26.3
					V473.3L1597.6,473.3z"/>
			</g>
		</g>
		<g>
			<path class="st4" d="M1281.5,657.2c-14.2-0.1-25.7-11.6-25.8-25.8h25.8V657.2z"/>
			<g>
				<path class="st1" d="M1281.3,631.7V657c-13.8-0.3-25-11.5-25.3-25.3H1281.3 M1281.8,631.2h-26.3v0c0,14.5,11.8,26.3,26.3,26.3
					V631.2L1281.8,631.2z"/>
			</g>
		</g>
		<g>
			<path class="st4" d="M1255.2,630.9c-14.2-0.1-25.7-11.6-25.8-25.8h25.8V630.9z"/>
			<g>
				<path class="st1" d="M1255,605.4v25.3c-13.8-0.3-25-11.5-25.3-25.3H1255 M1255.5,604.9h-26.3v0c0,14.5,11.8,26.3,26.3,26.3
					V604.9L1255.5,604.9z"/>
			</g>
		</g>
		<g>
			<path class="st4" d="M1281.5,552c-14.2-0.1-25.7-11.6-25.8-25.8h25.8V552z"/>
			<g>
				<path class="st1" d="M1281.3,526.4v25.3c-13.8-0.3-25-11.5-25.3-25.3H1281.3 M1281.8,525.9h-26.3c0,14.5,11.8,26.3,26.3,26.3
					V525.9L1281.8,525.9z"/>
			</g>
		</g>
		<g>
			<path class="st4" d="M1623.7,552c-14.2-0.1-25.7-11.6-25.8-25.8h25.8V552z"/>
			<g>
				<path class="st1" d="M1623.4,526.4v25.3c-13.8-0.3-25-11.5-25.3-25.3H1623.4 M1623.9,525.9h-26.3c0,14.5,11.8,26.3,26.3,26.3
					V525.9L1623.9,525.9z"/>
			</g>
		</g>
	</g>
	<g>
		<g>
			<rect x="1308.4" y="578.8" class="st1" width="25.8" height="25.8"/>
			<g>
				<path class="st1" d="M1333.9,579v25.3h-25.3V579H1333.9 M1334.4,578.5h-26.3v26.3h26.3V578.5L1334.4,578.5z"/>
			</g>
		</g>
		<g>
			<rect x="1334.7" y="578.8" class="st1" width="25.8" height="25.8"/>
			<g>
				<path class="st1" d="M1360.2,579v25.3h-25.3V579H1360.2 M1360.7,578.5h-26.3v26.3h26.3V578.5L1360.7,578.5z"/>
			</g>
		</g>
		<g>
			<rect x="1334.7" y="605.1" class="st1" width="25.8" height="25.8"/>
			<g>
				<path class="st1" d="M1360.2,605.4v25.3h-25.3v-25.3H1360.2 M1360.7,604.9h-26.3v26.3h26.3V604.9L1360.7,604.9z"/>
			</g>
		</g>
		<g>
			<rect x="1361" y="631.4" class="st1" width="25.8" height="25.8"/>
			<g>
				<path class="st1" d="M1386.6,631.7V657h-25.3v-25.3H1386.6 M1387.1,631.2h-26.3v26.3h26.3V631.2L1387.1,631.2z"/>
			</g>
		</g>
		<g>
			<rect x="1387.3" y="631.4" class="st1" width="25.8" height="25.8"/>
			<g>
				<path class="st1" d="M1412.9,631.7V657h-25.3v-25.3H1412.9 M1413.4,631.2h-26.3v26.3h26.3V631.2L1413.4,631.2z"/>
			</g>
		</g>
		<g>
			<rect x="1413.6" y="631.4" class="st1" width="25.8" height="25.8"/>
			<g>
				<path class="st1" d="M1439.2,631.7V657h-25.3v-25.3H1439.2 M1439.7,631.2h-26.3v26.3h26.3V631.2L1439.7,631.2z"/>
			</g>
		</g>
		<g>
			<rect x="1413.6" y="605.1" class="st1" width="25.8" height="25.8"/>
			<g>
				<path class="st1" d="M1439.2,605.4v25.3h-25.3v-25.3H1439.2 M1439.7,604.9h-26.3v26.3h26.3V604.9L1439.7,604.9z"/>
			</g>
		</g>
		<g>
			<rect x="1439.9" y="631.4" class="st1" width="25.8" height="25.8"/>
			<g>
				<path class="st1" d="M1465.5,631.7V657h-25.3v-25.3H1465.5 M1466,631.2h-26.3v26.3h26.3V631.2L1466,631.2z"/>
			</g>
		</g>
		<g>
			<rect x="1439.9" y="605.1" class="st1" width="25.8" height="25.8"/>
			<g>
				<path class="st1" d="M1465.5,605.4v25.3h-25.3v-25.3H1465.5 M1466,604.9h-26.3v26.3h26.3V604.9L1466,604.9z"/>
			</g>
		</g>
		<g>
			<rect x="1413.6" y="578.8" class="st1" width="25.8" height="25.8"/>
			<g>
				<path class="st1" d="M1439.2,579v25.3h-25.3V579H1439.2 M1439.7,578.5h-26.3v26.3h26.3V578.5L1439.7,578.5z"/>
			</g>
		</g>
		<g>
			<rect x="1466.3" y="631.4" class="st1" width="25.8" height="25.8"/>
			<g>
				<path class="st1" d="M1491.8,631.7V657h-25.3v-25.3H1491.8 M1492.3,631.2H1466v26.3h26.3V631.2L1492.3,631.2z"/>
			</g>
		</g>
		<g>
			<rect x="1439.9" y="473.5" class="st1" width="25.8" height="25.8"/>
			<g>
				<path class="st1" d="M1465.5,473.8v25.3h-25.3v-25.3H1465.5 M1466,473.3h-26.3v26.3h26.3V473.3L1466,473.3z"/>
			</g>
		</g>
		<g>
			<rect x="1466.3" y="473.5" class="st1" width="25.8" height="25.8"/>
			<g>
				<path class="st1" d="M1491.8,473.8v25.3h-25.3v-25.3H1491.8 M1492.3,473.3H1466v26.3h26.3V473.3L1492.3,473.3z"/>
			</g>
		</g>
		<g>
			<rect x="1492.6" y="473.5" class="st1" width="25.8" height="25.8"/>
			<g>
				<path class="st1" d="M1518.1,473.8v25.3h-25.3v-25.3H1518.1 M1518.6,473.3h-26.3v26.3h26.3V473.3L1518.6,473.3z"/>
			</g>
		</g>
		<g>
			<rect x="1413.6" y="447.2" class="st1" width="25.8" height="25.8"/>
			<g>
				<path class="st1" d="M1439.2,447.5v25.3h-25.3v-25.3H1439.2 M1439.7,447h-26.3v26.3h26.3V447L1439.7,447z"/>
			</g>
		</g>
		<g>
			<rect x="1361" y="473.5" class="st1" width="25.8" height="25.8"/>
			<g>
				<path class="st1" d="M1386.6,473.8v25.3h-25.3v-25.3H1386.6 M1387.1,473.3h-26.3v26.3h26.3V473.3L1387.1,473.3z"/>
			</g>
		</g>
		<g>
			<rect x="1439.9" y="447.2" class="st1" width="25.8" height="25.8"/>
			<g>
				<path class="st1" d="M1465.5,447.5v25.3h-25.3v-25.3H1465.5 M1466,447h-26.3v26.3h26.3V447L1466,447z"/>
			</g>
		</g>
		<g>
			<rect x="1466.3" y="447.2" class="st1" width="25.8" height="25.8"/>
			<g>
				<path class="st1" d="M1491.8,447.5v25.3h-25.3v-25.3H1491.8 M1492.3,447H1466v26.3h26.3V447L1492.3,447z"/>
			</g>
		</g>
		<g>
			<rect x="1492.6" y="447.2" class="st1" width="25.8" height="25.8"/>
			<g>
				<path class="st1" d="M1518.1,447.5v25.3h-25.3v-25.3H1518.1 M1518.6,447h-26.3v26.3h26.3V447L1518.6,447z"/>
			</g>
		</g>
		<g>
			<rect x="1518.9" y="447.2" class="st1" width="25.8" height="25.8"/>
			<g>
				<path class="st1" d="M1544.5,447.5v25.3h-25.3v-25.3H1544.5 M1545,447h-26.3v26.3h26.3V447L1545,447z"/>
			</g>
		</g>
		<g>
			<rect x="1466.3" y="420.9" class="st1" width="25.8" height="25.8"/>
			<g>
				<path class="st1" d="M1491.8,421.1v25.3h-25.3v-25.3H1491.8 M1492.3,420.6H1466V447h26.3V420.6L1492.3,420.6z"/>
			</g>
		</g>
		<g>
			<rect x="1492.6" y="420.9" class="st1" width="25.8" height="25.8"/>
			<g>
				<path class="st1" d="M1518.1,421.1v25.3h-25.3v-25.3H1518.1 M1518.6,420.6h-26.3V447h26.3V420.6L1518.6,420.6z"/>
			</g>
		</g>
		<g>
			<rect x="1518.9" y="420.9" class="st1" width="25.8" height="25.8"/>
			<g>
				<path class="st1" d="M1544.5,421.1v25.3h-25.3v-25.3H1544.5 M1545,420.6h-26.3V447h26.3V420.6L1545,420.6z"/>
			</g>
		</g>
		<g>
			<rect x="1439.9" y="552.5" class="st1" width="25.8" height="25.8"/>
			<g>
				<path class="st1" d="M1465.5,552.7V578h-25.3v-25.3H1465.5 M1466,552.2h-26.3v26.3h26.3V552.2L1466,552.2z"/>
			</g>
		</g>
		<g>
			<rect x="1466.3" y="552.5" class="st1" width="25.8" height="25.8"/>
			<g>
				<path class="st1" d="M1491.8,552.7V578h-25.3v-25.3H1491.8 M1492.3,552.2H1466v26.3h26.3V552.2L1492.3,552.2z"/>
			</g>
		</g>
		<g>
			<rect x="1466.3" y="526.2" class="st1" width="25.8" height="25.8"/>
			<g>
				<path class="st1" d="M1491.8,526.4v25.3h-25.3v-25.3H1491.8 M1492.3,525.9H1466v26.3h26.3V525.9L1492.3,525.9z"/>
			</g>
		</g>
		<g>
			<rect x="1492.6" y="552.5" class="st1" width="25.8" height="25.8"/>
			<g>
				<path class="st1" d="M1518.1,552.7V578h-25.3v-25.3H1518.1 M1518.6,552.2h-26.3v26.3h26.3V552.2L1518.6,552.2z"/>
			</g>
		</g>
		<g>
			<rect x="1545.2" y="526.2" class="st1" width="25.8" height="25.8"/>
			<g>
				<path class="st1" d="M1570.8,526.4v25.3h-25.3v-25.3H1570.8 M1571.3,525.9H1545v26.3h26.3V525.9L1571.3,525.9z"/>
			</g>
		</g>
		<g>
			<rect x="1545.2" y="499.8" class="st1" width="25.8" height="25.8"/>
			<g>
				<path class="st1" d="M1570.8,500.1v25.3h-25.3v-25.3H1570.8 M1571.3,499.6H1545v26.3h26.3V499.6L1571.3,499.6z"/>
			</g>
		</g>
		<g>
			<rect x="1518.9" y="499.8" class="st1" width="25.8" height="25.8"/>
			<g>
				<path class="st1" d="M1544.5,500.1v25.3h-25.3v-25.3H1544.5 M1545,499.6h-26.3v26.3h26.3V499.6L1545,499.6z"/>
			</g>
		</g>
		<g>
			<rect x="1413.6" y="526.2" class="st1" width="25.8" height="25.8"/>
			<g>
				<path class="st1" d="M1439.2,526.4v25.3h-25.3v-25.3H1439.2 M1439.7,525.9h-26.3v26.3h26.3V525.9L1439.7,525.9z"/>
			</g>
		</g>
		<g>
			<rect x="1413.6" y="499.8" class="st1" width="25.8" height="25.8"/>
			<g>
				<path class="st1" d="M1439.2,500.1v25.3h-25.3v-25.3H1439.2 M1439.7,499.6h-26.3v26.3h26.3V499.6L1439.7,499.6z"/>
			</g>
		</g>
		<g>
			<rect x="1387.3" y="499.8" class="st1" width="25.8" height="25.8"/>
			<g>
				<path class="st1" d="M1412.9,500.1v25.3h-25.3v-25.3H1412.9 M1413.4,499.6h-26.3v26.3h26.3V499.6L1413.4,499.6z"/>
			</g>
		</g>
		<g>
			<rect x="1466.3" y="605.1" class="st1" width="25.8" height="25.8"/>
			<g>
				<path class="st1" d="M1491.8,605.4v25.3h-25.3v-25.3H1491.8 M1492.3,604.9H1466v26.3h26.3V604.9L1492.3,604.9z"/>
			</g>
		</g>
		<g>
			<rect x="1466.3" y="578.8" class="st1" width="25.8" height="25.8"/>
			<g>
				<path class="st1" d="M1491.8,579v25.3h-25.3V579H1491.8 M1492.3,578.5H1466v26.3h26.3V578.5L1492.3,578.5z"/>
			</g>
		</g>
		<g>
			<rect x="1492.6" y="631.4" class="st1" width="25.8" height="25.8"/>
			<g>
				<path class="st1" d="M1518.1,631.7V657h-25.3v-25.3H1518.1 M1518.6,631.2h-26.3v26.3h26.3V631.2L1518.6,631.2z"/>
			</g>
		</g>
		<g>
			<rect x="1492.6" y="605.1" class="st1" width="25.8" height="25.8"/>
			<g>
				<path class="st1" d="M1518.1,605.4v25.3h-25.3v-25.3H1518.1 M1518.6,604.9h-26.3v26.3h26.3V604.9L1518.6,604.9z"/>
			</g>
		</g>
		<g>
			<rect x="1492.6" y="578.8" class="st1" width="25.8" height="25.8"/>
			<g>
				<path class="st1" d="M1518.1,579v25.3h-25.3V579H1518.1 M1518.6,578.5h-26.3v26.3h26.3V578.5L1518.6,578.5z"/>
			</g>
		</g>
		<g>
			<rect x="1518.9" y="631.4" class="st1" width="25.8" height="25.8"/>
			<g>
				<path class="st1" d="M1544.5,631.7V657h-25.3v-25.3H1544.5 M1545,631.2h-26.3v26.3h26.3V631.2L1545,631.2z"/>
			</g>
		</g>
		<g>
			<rect x="1545.2" y="631.4" class="st1" width="25.8" height="25.8"/>
			<g>
				<path class="st1" d="M1570.8,631.7V657h-25.3v-25.3H1570.8 M1571.3,631.2H1545v26.3h26.3V631.2L1571.3,631.2z"/>
			</g>
		</g>
		<g>
			<rect x="1571.5" y="631.4" class="st1" width="25.8" height="25.8"/>
			<g>
				<path class="st1" d="M1597.1,631.7V657h-25.3v-25.3H1597.1 M1597.6,631.2h-26.3v26.3h26.3V631.2L1597.6,631.2z"/>
			</g>
		</g>
		<g>
			<rect x="1571.5" y="552.5" class="st1" width="25.8" height="25.8"/>
			<g>
				<path class="st1" d="M1597.1,552.7V578h-25.3v-25.3H1597.1 M1597.6,552.2h-26.3v26.3h26.3V552.2L1597.6,552.2z"/>
			</g>
		</g>
		<g>
			<rect x="1597.8" y="552.5" class="st1" width="25.8" height="25.8"/>
			<g>
				<path class="st1" d="M1623.4,552.7V578h-25.3v-25.3H1623.4 M1623.9,552.2h-26.3v26.3h26.3V552.2L1623.9,552.2z"/>
			</g>
		</g>
		<g>
			<rect x="1624.2" y="552.5" class="st1" width="25.8" height="25.8"/>
			<g>
				<path class="st1" d="M1649.7,552.7V578h-25.3v-25.3H1649.7 M1650.2,552.2h-26.3v26.3h26.3V552.2L1650.2,552.2z"/>
			</g>
		</g>
		<g>
			<rect x="1518.9" y="605.1" class="st1" width="25.8" height="25.8"/>
			<g>
				<path class="st1" d="M1544.5,605.4v25.3h-25.3v-25.3H1544.5 M1545,604.9h-26.3v26.3h26.3V604.9L1545,604.9z"/>
			</g>
		</g>
		<g>
			<rect x="1518.9" y="578.8" class="st1" width="25.8" height="25.8"/>
			<g>
				<path class="st1" d="M1544.5,579v25.3h-25.3V579H1544.5 M1545,578.5h-26.3v26.3h26.3V578.5L1545,578.5z"/>
			</g>
		</g>
		<g>
			<path class="st1" d="M1597.8,631.4h25.8c-0.1,14.2-11.6,25.7-25.8,25.8V631.4z"/>
			<g>
				<path class="st1" d="M1623.4,631.7c-0.3,13.8-11.5,25-25.3,25.3v-25.3H1623.4 M1623.9,631.2h-26.3v26.3
					C1612.1,657.5,1623.9,645.7,1623.9,631.2L1623.9,631.2L1623.9,631.2z"/>
			</g>
		</g>
		<g>
			<path class="st1" d="M1624.2,605.1h25.8c-0.1,14.2-11.6,25.7-25.8,25.8V605.1z"/>
			<g>
				<path class="st1" d="M1649.7,605.4c-0.3,13.8-11.5,25-25.3,25.3v-25.3H1649.7 M1650.2,604.9h-26.3v26.3
					C1638.4,631.2,1650.2,619.4,1650.2,604.9L1650.2,604.9L1650.2,604.9z"/>
			</g>
		</g>
		<g>
			<rect x="1597.8" y="605.1" class="st1" width="25.8" height="25.8"/>
			<g>
				<path class="st1" d="M1623.4,605.4v25.3h-25.3v-25.3H1623.4 M1623.9,604.9h-26.3v26.3h26.3V604.9L1623.9,604.9z"/>
			</g>
		</g>
		<g>
			<rect x="1597.8" y="578.8" class="st1" width="25.8" height="25.8"/>
			<g>
				<path class="st1" d="M1623.4,579v25.3h-25.3V579H1623.4 M1623.9,578.5h-26.3v26.3h26.3V578.5L1623.9,578.5z"/>
			</g>
		</g>
		<g>
			<rect x="1624.2" y="578.8" class="st1" width="25.8" height="25.8"/>
			<g>
				<path class="st1" d="M1649.7,579v25.3h-25.3V579H1649.7 M1650.2,578.5h-26.3v26.3h26.3V578.5L1650.2,578.5z"/>
			</g>
		</g>
		<g>
			<rect x="1334.7" y="552.5" class="st1" width="25.8" height="25.8"/>
			<g>
				<path class="st1" d="M1360.2,552.7V578h-25.3v-25.3H1360.2 M1360.7,552.2h-26.3v26.3h26.3V552.2L1360.7,552.2z"/>
			</g>
		</g>
		<g>
			<rect x="1334.7" y="526.2" class="st1" width="25.8" height="25.8"/>
			<g>
				<path class="st1" d="M1360.2,526.4v25.3h-25.3v-25.3H1360.2 M1360.7,525.9h-26.3v26.3h26.3V525.9L1360.7,525.9z"/>
			</g>
		</g>
		<g>
			<rect x="1361" y="552.5" class="st1" width="25.8" height="25.8"/>
			<g>
				<path class="st1" d="M1386.6,552.7V578h-25.3v-25.3H1386.6 M1387.1,552.2h-26.3v26.3h26.3V552.2L1387.1,552.2z"/>
			</g>
		</g>
		<g>
			<path class="st1" d="M1334.2,630.9c-14.2-0.1-25.7-11.6-25.8-25.8h25.8V630.9z"/>
			<g>
				<path class="st1" d="M1333.9,605.4v25.3c-13.8-0.3-25-11.5-25.3-25.3H1333.9 M1334.4,604.9h-26.3v0c0,14.5,11.8,26.3,26.3,26.3
					V604.9L1334.4,604.9z"/>
			</g>
		</g>
		<g>
			<path class="st1" d="M1360.5,657.2c-14.2-0.1-25.7-11.6-25.8-25.8h25.8V657.2z"/>
			<g>
				<path class="st1" d="M1360.2,631.7V657c-13.8-0.3-25-11.5-25.3-25.3H1360.2 M1360.7,631.2h-26.3v0c0,14.5,11.8,26.3,26.3,26.3
					V631.2L1360.7,631.2z"/>
			</g>
		</g>
	</g>
	<g>
		<g>
			<path class="st2" d="M1361,604.6c0.1-14.2,11.6-25.7,25.8-25.8v25.8H1361z"/>
			<g>
				<path class="st1" d="M1386.6,579v25.3h-25.3C1361.5,590.5,1372.7,579.3,1386.6,579 M1387.1,578.5c-14.5,0-26.3,11.8-26.3,26.3
					h26.3V578.5L1387.1,578.5z"/>
			</g>
		</g>
		<g>
			<path class="st2" d="M1387.3,604.6v-25.8c14.2,0.1,25.7,11.6,25.8,25.8H1387.3z"/>
			<g>
				<path class="st1" d="M1387.6,579c13.8,0.3,25,11.5,25.3,25.3h-25.3V579 M1387.1,578.5v26.3h26.3
					C1413.4,590.3,1401.6,578.5,1387.1,578.5L1387.1,578.5z"/>
			</g>
		</g>
		<g>
			<path class="st2" d="M1387.3,605.1h25.8c-0.1,14.2-11.6,25.7-25.8,25.8V605.1z"/>
			<g>
				<path class="st1" d="M1412.9,605.4c-0.3,13.8-11.5,25-25.3,25.3v-25.3H1412.9 M1413.4,604.9h-26.3v26.3
					C1401.6,631.2,1413.4,619.4,1413.4,604.9L1413.4,604.9L1413.4,604.9z"/>
			</g>
		</g>
		<g>
			<path class="st2" d="M1386.8,630.9c-14.2-0.1-25.7-11.6-25.8-25.8h25.8V630.9z"/>
			<g>
				<path class="st1" d="M1386.6,605.4v25.3c-13.8-0.3-25-11.5-25.3-25.3H1386.6 M1387.1,604.9h-26.3v0c0,14.5,11.8,26.3,26.3,26.3
					V604.9L1387.1,604.9z"/>
			</g>
		</g>
	</g>
	<g>
		<g>
			<path class="st2" d="M1545.2,604.6c0.1-14.2,11.6-25.7,25.8-25.8v25.8H1545.2z"/>
			<g>
				<path class="st1" d="M1570.8,579v25.3h-25.3C1545.7,590.5,1556.9,579.3,1570.8,579 M1571.3,578.5c-14.5,0-26.3,11.8-26.3,26.3
					h26.3V578.5L1571.3,578.5z"/>
			</g>
		</g>
		<g>
			<path class="st2" d="M1571.5,604.6v-25.8c14.2,0.1,25.7,11.6,25.8,25.8H1571.5z"/>
			<g>
				<path class="st1" d="M1571.8,579c13.8,0.3,25,11.5,25.3,25.3h-25.3V579 M1571.3,578.5v26.3h26.3
					C1597.6,590.3,1585.8,578.5,1571.3,578.5L1571.3,578.5z"/>
			</g>
		</g>
		<g>
			<path class="st2" d="M1571.5,605.1h25.8c-0.1,14.2-11.6,25.7-25.8,25.8V605.1z"/>
			<g>
				<path class="st1" d="M1597.1,605.4c-0.3,13.8-11.5,25-25.3,25.3v-25.3H1597.1 M1597.6,604.9h-26.3v26.3
					C1585.8,631.2,1597.6,619.4,1597.6,604.9L1597.6,604.9L1597.6,604.9z"/>
			</g>
		</g>
		<g>
			<path class="st2" d="M1571,630.9c-14.2-0.1-25.7-11.6-25.8-25.8h25.8V630.9z"/>
			<g>
				<path class="st1" d="M1570.8,605.4v25.3c-13.8-0.3-25-11.5-25.3-25.3H1570.8 M1571.3,604.9H1545v0c0,14.5,11.8,26.3,26.3,26.3
					V604.9L1571.3,604.9z"/>
			</g>
		</g>
	</g>
</g>
</svg>
